<?xml version="1.0" encoding="UTF-8"?>
<svg width="2053px" height="1081px" viewBox="0 0 2053 1081" version="1.1" xmlns="http://www.w3.org/2000/svg" xmlns:xlink="http://www.w3.org/1999/xlink">
    <title>contact-us</title>
    <g id="contact-us" stroke="none" stroke-width="1" fill="none" fill-rule="evenodd">
        <g id="earthscape" transform="translate(1043.500000, 1156.000000) rotate(-26.000000) translate(-1043.500000, -1156.000000) translate(55.000000, 156.000000)" stroke="#03709C" stroke-width="5">
            <path d="M1961.5,975.5 C1952.3,960.7 1929,967 1915.5,977.6 C1902.1,988.2 1911.3,1005.9 1911.3,1005.9 L1868.5,1001.3 C1868.8,977.7 1868.1,954.1 1866.6,930.6 L1909.9,932.4 C1909.9,932.4 1913.4,938.8 1919.8,949.4 C1926.2,960 1936.8,950.8 1948.1,943.7 C1959.4,936.6 1957.3,928.9 1956.6,912.6 C1955.9,896.3 1940.3,879.4 1922.7,885.7 C1905.1,892 1905,916.1 1905,916.1 L1865.5,915.5 C1862.8,883 1858.3,850.6 1852,818.5 L1938.2,798 L1930.4,763.4 L1870.3,774 L1883.7,757.7 L1859.7,740.7 L1876,723 L1851.3,709.6 L1864,689.8 L1839.3,679.2 L1815.6,686.7 C1813.4,680.6 1811.1,674.5 1808.7,668.4 L1837.8,656.5 L1850.5,640.9 L1874.5,629.6 L1849,635.3 L1825,631.1 L1798.1,642.5 C1795.5,636.3 1792.8,630.2 1790.1,624.1 L1871,586.6 L1860.4,563.3 L1779.2,601 C1777.3,597.1 1775.4,593.2 1773.4,589.3 L1805.9,571.1 L1791.8,542.8 L1834.2,515.9 L1824.3,498.9 L1803.1,511.6 L1795.3,496.8 L1769.1,513.1 L1757.1,494 L1729.2,511.7 C1718.3,494.6 1706.7,477.7 1694.4,461.2 L1726,440.3 L1734.5,414.8 L1701.3,408.4 L1670.6,430.3 C1651.1,406.2 1630.1,382.9 1607.7,360.4 C1584.5,337.2 1560.3,315.5 1535.3,295.4 L1557.1,264.1 L1555.7,247.1 L1560.5,237.7 L1555.4,234 L1550.5,238.9 L1547.2,224.2 L1510.5,232.8 L1489.9,261 C1478.7,253.1 1467.4,245.6 1456,238.3 L1463.9,223 L1470.6,223 C1470.6,223 1474.6,223.7 1477.2,216.4 C1478.3,213.2 1478.3,211.6 1477.9,210.7 C1480,211.6 1483.4,212.2 1485.3,207.5 C1488.1,200.4 1481.8,192.7 1466.2,188.4 C1450.6,184.2 1441.5,190.5 1442.9,203.2 C1444.3,215.9 1457,218.8 1457,218.8 L1447.9,233.1 C1400.5,203.6 1351,179 1299.9,159.3 L1255.7,0.1 L1207.7,43.6 L1189.7,25.6 L1111.1,109.3 C1106.3,108.6 1101.5,107.9 1096.6,107.2 L1091.3,76.2 L1085.6,81.9 L1081.4,105.3 C1077.9,104.9 1074.4,104.5 1070.8,104.1 L1071.7,77.9 L1063.2,70.9 L1056.1,75.2 L1053,102.5 C1047.8,102.1 1042.5,101.7 1037.3,101.3 L1037.8,68.1 L1029.3,49.7 L1026.5,35.6 L1020.8,49.7 L1013.7,63.8 L1013.2,99.9 C1006.8,99.6 1000.5,99.5 994.1,99.4 L994.5,67.3 L986,61.6 L985.3,51 L979.6,52.4 L978.9,58.8 L963.3,47.5 L949.9,65.2 L950.7,99.6 C943.1,99.8 935.6,103.4 928,103.8 L924.5,70.2 L916,70.2 L917.3,104.4 C914.9,104.6 912.4,103.1 910,103.3 L837,14.5 L793.2,118.7 C728.7,132.3 665.4,152.9 604.6,180.9 L591.1,146.2 L571.3,151.8 L576.2,166.6 L567,170.1 L542.3,118.5 L521.8,129.1 L544.4,178.6 L533.8,183.5 L508.3,135.4 L487.1,146.7 L514,194.8 L502.7,200.5 L491.4,183.5 L468.1,177.1 L460.3,200.4 L480.1,234.3 L463.8,240.7 L453.2,221.6 L409.4,254.1 L421.4,273.2 L393.1,264.7 L388.2,288 L365.6,285.2 L362.8,305 L345.1,300.1 L343,320.6 L311.9,288.1 L289.1,309.9 L341.2,367 C337.7,370.5 334.3,374.1 330.9,377.7 L308.9,358 L303.2,342.4 L289.8,336 L279.2,342.4 L262.2,332.5 L271.4,350.2 L267.2,361.5 L269.3,372.1 L280.6,377.8 L291.9,376.4 L313.4,396.7 C307.6,403.2 301.8,409.8 296.2,416.5 L273.5,396.3 L252.3,397.7 L253,416.8 L228.3,427.4 L226.9,450 L205.7,457.1 L209.9,474.1 L174.5,448.6 L154,474.8 L168.8,484 L147,514.3 L185.2,532.7 L174.6,553.2 L115.9,528.5 L103.2,560.9 L179.7,593.7 C159,635.3 141.8,678.2 128,721.9 L100.3,716.6 C100.3,716.6 108.8,703.9 103.1,696.8 C97.4,689.7 83.3,671.3 67.7,679.8 C52.1,688.3 43.7,712.3 49.3,722.2 C55,732.1 76.2,744.8 80.4,736.3 C84.6,727.8 91,727.1 91,727.1 L124.3,733.4 C112.2,773.8 103,814.9 96.7,856.4 L62.7,851.6 L47.9,865.1 L34.5,865.8 L31.7,878.5 L38.8,881.3 L16.2,906.8 L39.5,935.8 L88,943.2 C87.5,952.9 87.1,962.6 86.9,972.3 L53.6,973.9 L14,1023.4 L50.8,1050.3 L88.6,1048.1 C89.2,1057.6 90,1067.1 90.9,1076.6 L49.7,1077.9 L2.04636308e-12,1113.5 L26.9,1140.4 L15.1,1142.3 L16.6,1154.9 L33.6,1154.8 L50.6,1170.3 L104.1,1165.3 C117.7,1233.3 139.2,1300.1 168.8,1364 L135.5,1381 L128.4,1400.8 L148.9,1408.6 L183.2,1393.9 C187.1,1401.6 191.1,1409.2 195.3,1416.8 L164.5,1431.3 L156,1448.3 L177.2,1456.8 L208.9,1441 C215.5,1452.2 222.3,1463.3 229.5,1474.3 L202,1491.5 C202,1491.5 199.2,1483 190,1482.3 C180.8,1481.6 168.1,1481.6 165.3,1491.5 C162.5,1501.4 158.2,1509.9 166.7,1518.4 C175.2,1526.9 183,1534.7 192.9,1527.6 C202.8,1520.5 208.5,1516.3 206.3,1509.9 L204.2,1503.5 L236.3,1484.5 C248.6,1502.9 261.6,1520.9 275.4,1538.5 L244.6,1562.2 C244.6,1562.2 235.4,1585.5 263.7,1619.5 C292,1653.4 318.9,1670.4 332.3,1666.9 L364.1,1636.2 C428,1697 498.8,1746.5 573.8,1784.7 L549.3,1830.2 L571.9,1841.5 L563.4,1862.7 L588.1,1871.9 L606.5,1832.3 L625.6,1840.1 L618.5,1862.7 L646.8,1872.6 L645.4,1895.2 L663.1,1898.7 L676.5,1866.9 L689.9,1871.8 L696.3,1927.7 L718.9,1886.7 L747.9,1894.5 L745.1,1914.3 L771.3,1917.8 L774.7,1878.9 L792.9,1881.7 L792.9,1932.6 L810,1955.2 L824.2,1938.2 L832.5,1869.4 C843.8,1871.3 855.6,1872.9 867,1874.3 L864.5,1910.6 L886.5,1928.3 L904.2,1914.9 L929,1929.7 L944.6,1919.8 L967.2,1932.5 L989.1,1913.4 L1018.1,1929.7 L1033.7,1912.7 L1032.7,1879.4 C1053.1,1878.1 1073.5,1876.2 1093.8,1873.6 L1096.6,1902.4 C1096.6,1902.4 1084.6,1910.2 1082.5,1918 C1080.4,1925.8 1083.2,1941.3 1088.2,1947.7 C1093.1,1954.1 1102.3,1978.8 1103.8,1981.6 C1105.2,1984.4 1106.6,2000 1106.6,2000 C1106.6,2000 1105.2,1966.1 1115.1,1953.3 C1125,1940.6 1130.7,1922.2 1125,1915.1 C1119.3,1908 1110.2,1903.1 1110.2,1903.1 L1109.7,1871.4 C1120.9,1869.7 1132.1,1867.8 1143.3,1865.7 L1145.5,1883.2 C1145.5,1883.2 1139.8,1888.9 1138.4,1894.5 C1137,1900.2 1136.3,1919.2 1141.9,1927.7 C1147.6,1936.2 1161,1963.8 1161,1963.8 C1161,1963.8 1173,1932 1173.7,1921.4 C1174.4,1910.8 1173.7,1891.7 1169.5,1887.5 C1165.3,1883.3 1158.2,1880.4 1158.2,1880.4 L1156.5,1863.1 C1168.6,1860.6 1180.6,1857.9 1192.6,1855 L1199.2,1890.3 C1199.2,1890.3 1190.7,1904.4 1190,1910.8 C1189.3,1917.2 1191.4,1930.6 1199.2,1939.8 C1207,1949 1211.9,1955.4 1216.9,1954.6 C1221.8,1953.9 1232.5,1934.8 1230.3,1921.4 C1228.2,1908 1226.1,1894.5 1220.4,1891.7 C1214.7,1888.9 1210.5,1887.5 1210.5,1887.5 L1205.4,1851.7 C1214.8,1849.2 1224.2,1846.6 1233.6,1843.8 L1239.5,1867 C1239.5,1867 1231.7,1877.6 1231.7,1884.7 C1231.7,1891.8 1235.9,1907.3 1245.8,1905.9 C1255.7,1904.5 1264.9,1905.2 1268.4,1894.6 C1271.9,1884 1271.2,1877.6 1268.4,1872 C1265.6,1866.3 1252.8,1864.9 1252.8,1864.9 L1246.3,1839.9 C1349.1,1807.5 1447.2,1756 1535.1,1685.4 L1551.3,1705.1 L1574.5,1684.5 L1592.8,1705.6 L1603.4,1695 L1588,1676.7 L1607.9,1658.4 L1589.1,1638.5 C1595.4,1632.5 1601.7,1626.4 1607.9,1620.2 C1610.4,1617.7 1612.9,1615.1 1615.4,1612.6 L1631.2,1629.4 L1646.6,1618 L1663.5,1632 L1681.2,1614.3 L1720.2,1647.6 L1733,1632.1 L1678.6,1583.3 L1710.4,1547.3 C1710.4,1547.3 1696.4,1536.8 1686.7,1530 C1700.1,1512.4 1712.8,1494.5 1724.7,1476.2 L1757.1,1497.8 L1789.6,1475.2 L1777.6,1467.4 L1813,1441.9 L1801,1435.5 L1835.6,1402.3 L1821.5,1395.2 L1831.4,1376.8 L1912,1403.7 L1919.1,1389.6 L1799,1336.7 C1805.2,1322 1811,1307.1 1816.4,1292.1 L1845.6,1300.5 L1879.5,1283.5 L1866.1,1260.2 L1830.5,1249.4 C1832,1244.4 1833.5,1239.3 1834.9,1234.3 L1866.7,1242.5 L1897.1,1223.4 L1878.7,1202.2 L1845,1195.1 C1858.7,1136.9 1866.5,1077.5 1868.3,1018 L1910.1,1021.3 C1910.1,1021.3 1919.3,1039 1934.1,1048.2 C1948.9,1057.4 1947.5,1037.6 1967.3,1019.2 C1986.9,1001 1970.6,990.4 1961.5,975.5 L1961.5,975.5 Z" id="Path"></path>
        </g>
        <g id="earthscape-rocket" transform="translate(147.000000, 0.000000)" fill-rule="nonzero">
            <g id="Group" transform="translate(0.000000, 48.743768)" fill="#03709C">
                <path d="M0.41484058,365.474551 L3.94098551,361.637275 L4.04469565,361.740986 M12.4452174,352.614493 L16.0750725,348.777217 L16.489913,349.295768 L12.860058,352.925623 M24.6830145,339.858145 L28.4165797,336.22829 L29.1425507,337.057971 L25.4089855,340.584116 M37.231942,327.412928 L40.8617971,323.783072 L41.8988986,324.923884 L38.1653333,328.450029 M49.8845797,315.17513 L53.6181449,311.545275 L54.9663768,312.997217 L51.1291014,316.419652 M62.7446377,303.041043 L66.4782029,299.514899 L68.0338551,301.277971 L64.1965797,304.700406 M75.7084058,291.114377 L79.5456812,287.691942 L81.3087536,289.662435 L77.4714783,293.08487 M88.9833043,279.498841 L92.9242899,276.076406 L94.7910725,278.358029 L90.7463768,281.676754 M102.361913,267.987014 L106.302899,264.66829 L108.377101,267.157333 L104.332406,270.372348 M115.947942,256.786319 L119.992638,253.467594 L122.066841,256.060348 L118.022145,259.275362 M129.741391,245.689333 L133.786087,242.474319 L135.964,245.274493 L131.919304,248.489507 M143.638551,234.799768 L147.683246,231.688464 L150.06858,234.696058 L145.920174,237.807362 M157.63942,224.117623 L161.787826,221.006319 L164.27687,224.325043 L160.024754,227.332638 M171.84771,213.642899 L176.099826,210.635304 L178.58887,214.161449 L174.336754,217.169043 M186.26342,203.375594 L190.515536,200.47171 L193.10829,204.101565 L188.752464,207.109159 M200.782841,193.41942 L205.138667,190.515536 L207.73142,194.352812 L203.375594,197.256696 M215.509681,183.670667 L219.865507,180.766783 L222.458261,184.811478 L218.102435,187.611652 M230.340232,174.025623 L234.696058,171.329159 L237.288812,175.373855 L232.932986,178.174029 M245.378203,164.69171 L249.734029,161.995246 L252.326783,166.247362 L247.867246,168.943826 M260.519884,155.565217 L264.97942,152.972464 L267.468464,157.22458 L263.008928,159.921043 M275.765275,146.749855 L280.224812,144.157101 L282.713855,148.512928 L278.254319,151.105681 M291.114377,138.038203 L295.677623,135.549159 L298.166667,140.008696 L293.60342,142.497739 M306.670899,129.637681 L311.234145,127.148638 L313.619478,131.711884 L309.056232,134.097217 M322.33113,121.44458 L326.894377,119.059246 L329.27971,123.622493 L324.612754,126.007826 M338.095072,113.458899 L342.762029,111.177275 L345.043652,115.844232 L340.376696,118.125855 M353.962725,105.784348 L358.629681,103.502725 L360.807594,108.169681 L356.140638,110.347594 M369.934087,98.3172174 L374.704754,96.1393043 L376.778957,100.806261 L372.112,102.880464 M386.11287,91.0575072 L390.883536,88.9833043 L392.854029,93.5465507 L388.083362,95.7244638 M402.291652,84.1089275 L407.062319,82.0347246 L409.032812,86.7016812 L404.262145,88.6721739 M418.574145,77.264058 L423.448522,75.3972754 L425.315304,79.9605217 L420.440928,81.9310145 M435.064058,70.834029 L439.938435,68.9672464 L441.597797,73.4267826 L436.82713,75.2935652 M451.553971,64.6114203 L456.428348,62.8483478 L458.08771,67.2041739 L453.213333,68.9672464 M468.147594,58.5962319 L473.125681,56.9368696 L474.577623,61.1889855 L469.703246,62.952058 M484.948638,52.8921739 L489.823014,51.2328116 L491.274957,55.3812174 L486.29687,57.1442899 M501.645971,47.3955362 L506.624058,45.8398841 L507.97229,49.8845797 L502.994203,51.4402319 M518.550725,42.210029 L523.528812,40.758087 L524.669623,44.4916522 L519.795246,46.0473043 M535.559188,37.231942 L540.537275,35.8837101 L541.574377,39.4098551 L536.59629,40.9655072 M552.567652,32.5649855 L557.545739,31.2167536 L558.47913,34.6391884 L553.501043,35.9874203 M569.679826,28.1054493 L574.657913,26.8609275 L575.487594,30.075942 L570.405797,31.3204638 M586.792,23.9570435 L591.873797,22.7125217 L592.496058,25.7201159 L587.517971,26.9646377 M604.007884,20.016058 L609.089681,18.8752464 L609.711942,21.5717101 L604.630145,22.8162319 M621.223768,16.2824928 L626.305565,15.3491014 L626.824116,17.7344348 L621.742319,18.8752464 M638.543362,12.9637681 L643.625159,12.0303768 L644.04,14.1045797 L638.958203,15.1416812 M655.966667,9.85246377 L661.048464,9.02278261 L661.359594,10.6821449 L656.277797,11.7192464 M673.389971,7.05228986 L678.471768,6.2226087 L678.679188,7.57084058 L673.597391,8.40052174 M690.813275,4.45953623 L695.998783,3.73356522 L696.102493,4.66695652 L690.916986,5.49663768 M708.34029,2.17791304 L713.422087,1.55565217 L713.525797,1.97049275 L708.34029,2.69646377 M725.763594,0.20742029 L726.904406,0.103710145 L725.867304,0.20742029" id="Shape"></path>
            </g>
            <g id="Group" transform="translate(724.933913, 0.000000)" fill="#03709C">
                <path d="M511.083594,70.0043478 L494.904812,74.2564638 C493.86771,74.5675942 492.726899,75.5009855 492.312058,76.3306667 L488.371072,85.146029 C487.956232,85.9757101 488.474783,86.4942609 489.511884,86.1831304 L505.690667,81.9310145 C506.727768,81.6198841 507.86858,80.6864928 508.28342,79.8568116 L512.224406,71.0414493 C512.639246,70.2117681 512.120696,69.7969275 511.083594,70.0043478 Z M508.905681,73.5304928 C508.17971,74.2564638 507.246319,75.1898551 506.312928,76.0195362 C505.586957,76.6417971 504.860986,77.3677681 504.031304,77.990029 L506.001797,80.893913 L502.786783,79.0271304 C502.371942,79.3382609 501.957101,79.6493913 501.438551,80.0642319 C500.71258,80.5827826 499.986609,80.893913 499.053217,80.9976232 C498.845797,80.9976232 498.534667,80.9976232 498.223536,80.893913 C498.016116,80.7902029 497.912406,80.6864928 497.704986,80.5827826 L497.497565,80.3753623 L490.030435,85.146029 L496.149333,79.0271304 C495.941913,78.8197101 495.838203,78.6122899 495.630783,78.4048696 C494.282551,76.7455072 493.45287,75.6046957 493.45287,75.6046957 C493.45287,75.6046957 494.697391,76.3306667 496.460464,77.5751884 C496.875304,77.8863188 497.393855,78.1974493 497.808696,78.6122899 C498.016116,78.8197101 498.327246,79.0271304 498.534667,79.2345507 C498.638377,79.2345507 498.638377,79.3382609 498.742087,79.3382609 C498.742087,79.3382609 498.638377,79.3382609 498.638377,79.2345507 L498.742087,79.2345507 C499.053217,79.1308406 499.571768,78.9234203 500.090319,78.5085797 C500.60887,78.0937391 501.12742,77.6788986 501.645971,77.1603478 C502.786783,76.2269565 503.823884,75.3972754 504.964696,74.6713043 C506.001797,73.9453333 507.038899,73.2193623 507.97229,72.7008116 C509.735362,71.56 511.083594,70.9377391 511.083594,70.9377391 C511.083594,70.9377391 510.461333,72.0785507 508.905681,73.5304928 L508.905681,73.5304928 Z M580.776812,113.044058 L565.946261,105.265797 C565.01287,104.747246 563.560928,104.643536 562.627536,105.058377 L553.812174,108.895652 C552.982493,109.310493 552.982493,109.932754 553.915884,110.451304 L568.746435,118.229565 C569.679826,118.748116 571.131768,118.851826 572.065159,118.436986 L580.880522,114.59971 C581.813913,114.28858 581.710203,113.562609 580.776812,113.044058 Z M576.835826,114.28858 C575.798725,114.39229 574.554203,114.39229 573.205971,114.39229 C572.27258,114.39229 571.235478,114.39229 570.198377,114.28858 L569.679826,117.711014 L568.642725,114.18487 C568.124174,114.18487 567.605623,114.081159 566.983362,114.081159 C566.153681,113.977449 565.324,113.770029 564.598029,113.147768 C564.390609,112.940348 564.183188,112.836638 564.079478,112.525507 C563.975768,112.318087 563.975768,112.214377 563.872058,112.006957 L563.872058,111.695826 L555.160406,110.140174 L563.872058,109.725333 L563.872058,108.999362 C563.975768,106.821449 564.183188,105.473217 564.183188,105.473217 C564.183188,105.473217 564.598029,106.821449 565.01287,108.895652 C565.11658,109.414203 565.22029,109.932754 565.324,110.555014 C565.324,110.866145 565.42771,111.177275 565.42771,111.488406 L565.42771,111.695826 L565.42771,111.592116 L565.53142,111.695826 C565.842551,111.903246 566.464812,112.006957 566.983362,112.006957 C567.709333,112.006957 568.331594,112.110667 569.057565,112.110667 C570.509507,112.214377 571.857739,112.318087 573.205971,112.525507 C574.554203,112.732928 575.695014,112.836638 576.835826,113.044058 C578.910029,113.458899 580.361971,113.873739 580.361971,113.873739 C580.361971,113.873739 578.910029,114.18487 576.835826,114.28858 L576.835826,114.28858 Z M1062.92528,482.563304 L1048.09472,474.785043 C1047.16133,474.266493 1045.70939,474.162783 1044.776,474.577623 L1035.96064,478.414899 C1035.13096,478.829739 1035.13096,479.452 1036.06435,479.970551 L1050.8949,487.748812 C1051.82829,488.267362 1053.28023,488.371072 1054.21362,487.956232 L1063.02899,484.118957 C1063.85867,483.704116 1063.85867,482.978145 1062.92528,482.563304 Z M1058.98429,483.704116 C1057.94719,483.807826 1056.70267,483.807826 1055.35443,483.807826 C1054.42104,483.807826 1053.38394,483.807826 1052.34684,483.704116 L1051.82829,487.126551 L1050.79119,483.600406 C1050.27264,483.600406 1049.75409,483.496696 1049.13183,483.496696 C1048.30214,483.392986 1047.47246,483.185565 1046.74649,482.563304 C1046.53907,482.355884 1046.33165,482.252174 1046.22794,481.941043 C1046.12423,481.733623 1046.12423,481.629913 1046.02052,481.422493 L1046.02052,481.111362 L1037.30887,479.55571 L1046.02052,479.14087 L1046.02052,478.414899 C1046.12423,476.236986 1046.33165,474.888754 1046.33165,474.888754 C1046.33165,474.888754 1046.74649,476.236986 1047.16133,478.311188 C1047.26504,478.829739 1047.36875,479.34829 1047.47246,479.970551 C1047.47246,480.281681 1047.57617,480.592812 1047.57617,480.903942 L1047.57617,481.111362 L1047.57617,481.007652 L1047.67988,481.111362 C1047.99101,481.318783 1048.61328,481.422493 1049.13183,481.422493 C1049.8578,481.422493 1050.48006,481.526203 1051.20603,481.526203 C1052.65797,481.629913 1054.0062,481.733623 1055.35443,481.941043 C1056.70267,482.148464 1057.84348,482.252174 1058.98429,482.459594 C1061.05849,482.874435 1062.51043,483.289275 1062.51043,483.289275 C1062.51043,483.289275 1061.05849,483.600406 1058.98429,483.704116 L1058.98429,483.704116 Z M364.333739,48.4326377 L339.028464,60.1518841 C337.369101,60.8778551 335.813449,62.7446377 335.398609,64.3002899 L331.457623,79.8568116 C331.042783,81.4124638 332.079884,82.0347246 333.635536,81.3087536 L358.940812,69.5895072 C360.600174,68.8635362 362.155826,66.9967536 362.570667,65.4411014 L366.511652,49.8845797 C366.926493,48.3289275 365.993101,47.6029565 364.333739,48.4326377 Z M361.533565,54.5515362 C360.496464,55.8997681 359.148232,57.5591304 357.69629,59.2184928 C356.970319,60.0481739 356.244348,60.9815652 355.518377,61.8112464 C354.999826,62.4335072 354.481275,63.0557681 353.962725,63.5743188 L359.148232,67.8264348 L353.029333,64.7151304 C352.303362,65.5448116 351.577391,66.3744928 350.85142,67.1004638 C350.021739,68.0338551 348.984638,68.7598261 347.636406,69.1746667 C347.325275,69.2783768 346.910435,69.2783768 346.495594,69.1746667 C346.288174,69.1746667 346.080754,69.0709565 345.873333,68.9672464 C345.769623,68.8635362 345.665913,68.7598261 345.562203,68.7598261 C345.354783,68.6561159 345.147362,68.4486957 345.043652,68.3449855 L334.361507,79.3382609 L343.79913,67.4115942 C343.17687,66.9967536 342.554609,66.581913 342.036058,66.1670725 C339.132174,64.0928696 337.369101,62.5372174 337.369101,62.5372174 C337.369101,62.5372174 339.443304,63.5743188 342.554609,65.3373913 C343.28058,65.7522319 344.110261,66.2707826 345.043652,66.7893333 C345.458493,67.1004638 345.873333,67.3078841 346.391884,67.6190145 C346.495594,67.7227246 346.599304,67.7227246 346.703014,67.8264348 L346.806725,67.8264348 C346.910435,67.8264348 347.117855,67.8264348 347.325275,67.7227246 C348.154957,67.5153043 348.984638,66.7893333 349.710609,65.9596522 C350.43658,65.129971 351.266261,64.1965797 351.992232,63.2631884 C352.821913,62.4335072 353.547884,61.5001159 354.377565,60.6704348 C355.103536,59.8407536 355.933217,59.0110725 356.659188,58.1813913 C358.11113,56.522029 359.563072,55.070087 360.807594,53.8255652 C363.296638,51.3365217 365.05971,49.6771594 365.05971,49.6771594 C365.05971,49.6771594 363.711478,51.7513623 361.533565,54.5515362 L361.533565,54.5515362 Z M637.506261,238.014783 L626.409275,250.46 C625.683304,251.289681 625.268464,252.637913 625.372174,253.571304 L626.927826,263.112638 C627.031536,264.046029 627.757507,264.149739 628.483478,263.423768 L639.580464,250.978551 C640.306435,250.14887 640.721275,248.800638 640.617565,247.867246 L639.061913,238.325913 C638.854493,237.392522 638.128522,237.185101 637.506261,238.014783 Z M635.017217,251.704522 C634.706087,252.534203 634.291246,253.156464 633.565275,253.778725 C633.357855,253.882435 633.150435,254.089855 632.735594,254.193565 L632.217043,254.193565 C632.113333,254.193565 632.009623,254.193565 632.009623,254.089855 L628.483478,262.179246 L630.246551,253.675014 C630.03913,253.571304 629.728,253.571304 629.52058,253.467594 C627.446377,252.845333 626.098145,252.326783 626.098145,252.326783 C626.098145,252.326783 627.550087,252.223072 629.62429,252.326783 C630.142841,252.326783 630.765101,252.430493 631.387362,252.430493 C631.698493,252.430493 632.009623,252.430493 632.320754,252.534203 L632.528174,252.534203 L632.424464,252.534203 L632.528174,252.430493 C632.839304,252.223072 633.046725,251.600812 633.254145,251.082261 C633.461565,250.46 633.668986,249.734029 633.876406,249.111768 C634.291246,247.763536 634.809797,246.415304 635.224638,245.170783 C635.743188,243.926261 636.158029,242.785449 636.67658,241.852058 C637.506261,239.881565 638.335942,238.637043 638.335942,238.637043 C638.335942,238.637043 638.232232,240.088986 637.817391,242.163188 C637.609971,243.20029 637.402551,244.444812 636.98771,245.689333 C636.78029,246.622725 636.469159,247.659826 636.158029,248.593217 L639.373043,249.941449 L635.743188,250.14887 C635.432058,250.66742 635.224638,251.185971 635.017217,251.704522 L635.017217,251.704522 Z M801.26458,296.818435 C801.057159,295.573913 800.020058,294.018261 798.982957,293.396 L788.715652,287.484522 C787.678551,286.862261 787.05629,287.484522 787.26371,288.729043 L790.582435,309.056232 C790.789855,310.300754 791.826957,311.856406 792.864058,312.478667 L803.131362,318.390145 C804.168464,319.012406 804.790725,318.390145 804.583304,317.145623 L801.26458,296.818435 Z M800.538609,314.034319 C799.708928,312.997217 798.775536,311.856406 797.842145,310.508174 C797.323594,309.885913 796.908754,309.159942 796.390203,308.433971 C796.182783,308.01913 795.871652,307.708 795.560522,307.293159 L791.723246,309.574783 L794.62713,305.841217 C794.21229,305.218957 793.901159,304.596696 793.486319,304.078145 C792.967768,303.248464 792.656638,302.315072 792.656638,301.174261 C792.656638,300.86313 792.760348,300.552 792.864058,300.24087 C792.967768,300.033449 793.071478,299.929739 793.278899,299.722319 C793.382609,299.618609 793.486319,299.618609 793.486319,299.514899 L793.590029,299.411188 L788.404522,289.662435 L795.145681,298.166667 C795.456812,297.959246 795.767942,297.648116 796.079072,297.440696 C798.153275,295.885043 799.708928,295.055362 799.708928,295.055362 C799.708928,295.055362 798.671826,296.507304 796.805043,298.374087 C796.390203,298.892638 795.871652,299.411188 795.353101,299.929739 L794.52342,300.75942 L794.316,300.966841 L794.316,301.174261 C794.316,301.692812 794.62713,302.418783 795.041971,302.937333 C795.560522,303.663304 795.975362,304.389275 796.493913,305.115246 C797.012464,305.841217 797.427304,306.567188 797.842145,307.293159 C798.256986,308.01913 798.671826,308.745101 799.190377,309.471072 C800.020058,310.923014 800.746029,312.167536 801.36829,313.412058 C802.612812,315.693681 803.235072,317.353043 803.235072,317.353043 C803.235072,317.353043 802.197971,316.004812 800.538609,314.034319 L800.538609,314.034319 Z M897.611304,183.359536 L878.528638,157.12087 C877.284116,155.461507 874.795072,154.113275 872.92829,154.009565 L854.053043,153.491014 C852.186261,153.491014 851.66771,154.735536 852.912232,156.394899 L871.994899,182.633565 C873.23942,184.292928 875.728464,185.641159 877.595246,185.74487 L896.470493,186.26342 C898.233565,186.36713 898.752116,185.018899 897.611304,183.359536 Z M889.833043,181.596464 C887.966261,180.663072 885.788348,179.625971 883.506725,178.485159 C882.365913,177.862899 881.121391,177.240638 879.98058,176.618377 L877.802667,175.373855 L873.965391,182.322435 L876.143304,174.440464 C875.002493,173.818203 873.861681,173.092232 872.72087,172.469971 C871.994899,172.05513 871.476348,171.64029 870.957797,171.018029 C870.439246,170.499478 870.024406,169.877217 869.713275,169.047536 C869.609565,168.632696 869.505855,168.217855 869.609565,167.595594 C869.609565,167.491884 869.713275,167.284464 869.713275,167.180754 L869.816986,166.973333 L870.024406,166.558493 C870.128116,166.454783 870.128116,166.247362 870.231826,166.143652 L855.297565,156.706029 L871.061507,164.38058 C871.476348,163.550899 871.891188,162.721217 872.202319,161.995246 C873.965391,158.261681 875.313623,155.772638 875.313623,155.772638 C875.313623,155.772638 874.587652,158.469101 873.23942,162.410087 C872.92829,163.343478 872.513449,164.48429 872.202319,165.625101 C871.994899,166.143652 871.787478,166.765913 871.580058,167.388174 L871.372638,167.803014 L871.268928,168.010435 L871.268928,168.114145 C871.268928,168.217855 871.268928,168.425275 871.372638,168.632696 C871.683768,169.462377 872.72087,170.395768 873.654261,170.914319 C874.795072,171.53658 876.039594,172.262551 877.284116,172.884812 C878.528638,173.610783 879.669449,174.233043 880.913971,174.959014 C882.054783,175.581275 883.195594,176.307246 884.336406,176.929507 C886.514319,178.277739 888.588522,179.522261 890.351594,180.663072 C893.877739,182.840986 896.055652,184.500348 896.055652,184.500348 C896.055652,184.500348 893.566609,183.463246 889.833043,181.596464 L889.833043,181.596464 Z M1042.90922,283.128696 L967.200812,242.99287 C962.430145,240.400116 954.859304,240.088986 950.296058,242.059478 L904.871014,262.801507 C900.411478,264.87571 900.618899,268.609275 905.493275,271.098319 L981.201681,311.234145 C985.972348,313.826899 993.543188,314.138029 998.106435,312.167536 L1043.53148,291.425507 C1047.8873,289.455014 1047.67988,285.721449 1042.90922,283.128696 L1042.90922,283.128696 Z M1035.64951,287.484522 C1032.43449,287.380812 1027.87125,287.380812 1022.47832,287.173391 C1016.98168,286.965971 1010.65536,286.758551 1003.81049,286.44742 C1000.38806,286.34371 996.861913,286.13629 993.335768,285.92887 C990.639304,285.825159 987.83913,285.617739 985.142667,285.514029 L985.764928,308.226551 L983.172174,285.410319 L982.446203,285.410319 L971.556638,284.788058 C969.689855,284.580638 967.823072,284.165797 966.16371,283.543536 C964.400638,282.921275 962.741275,282.091594 961.393043,280.743362 C960.667072,280.121101 960.044812,279.29142 959.837391,278.254319 C959.837391,277.943188 959.733681,277.735768 959.733681,277.424638 L959.733681,276.802377 C959.733681,276.387536 959.733681,275.972696 959.629971,275.557855 C959.629971,274.624464 959.526261,273.691072 959.526261,272.757681 L910.886203,269.231536 L957.555768,270.890899 C957.348348,267.779594 958.178029,264.772 958.074319,261.971826 C957.763188,256.475188 958.178029,251.911942 957.970609,248.696928 C957.866899,245.481913 958.074319,243.61513 958.074319,243.61513 C958.074319,243.61513 958.385449,245.378203 958.69658,248.593217 C959.00771,251.808232 959.526261,256.267768 960.044812,261.764406 C960.252232,264.46087 960.563362,267.468464 960.874493,270.579768 C960.978203,272.13542 960.978203,273.794783 961.185623,275.350435 C961.185623,275.765275 961.081913,276.180116 961.185623,276.594957 L961.185623,277.217217 C961.185623,277.320928 961.393043,277.528348 961.393043,277.632058 C961.600464,278.254319 962.015304,278.77287 962.637565,279.29142 C963.778377,280.328522 965.230319,281.054493 966.889681,281.573043 C968.445333,282.091594 970.208406,282.506435 971.867768,282.610145 C975.393913,282.817565 979.127478,283.024986 982.757333,283.232406 L993.646899,283.854667 C993.646899,283.854667 1000.8029,284.269507 1004.12162,284.476928 C1010.96649,284.891768 1017.29281,285.410319 1022.78945,285.825159 C1028.28609,286.24 1032.74562,286.654841 1035.96064,286.965971 C1039.17565,287.277101 1040.93872,287.484522 1040.93872,287.484522 L1035.64951,287.484522 L1035.64951,287.484522 Z M1012.52214,386.009159 C1012.41843,385.075768 1011.89988,385.075768 1011.38133,385.905449 L1003.70678,398.869217 C1003.18823,399.698899 1002.98081,401.04713 1003.08452,401.980522 L1004.64017,410.899594 C1004.74388,411.832986 1005.26243,411.832986 1005.78099,411.003304 L1013.45554,398.039536 C1013.97409,397.209855 1014.18151,395.861623 1014.0778,394.928232 L1012.52214,386.009159 Z M1010.44794,396.380174 L1008.89229,396.380174 C1008.78858,396.380174 1008.89229,396.380174 1008.89229,396.380174 C1008.89229,396.380174 1008.78858,396.483884 1008.78858,396.587594 L1008.47745,397.209855 C1008.47745,397.209855 1008.37374,397.728406 1008.27003,398.039536 C1008.27003,398.350667 1008.16632,398.661797 1008.16632,398.972928 L1007.85519,400.83971 C1007.75148,401.461971 1007.64777,402.084232 1007.44035,402.706493 C1007.33664,403.328754 1007.12922,403.847304 1007.02551,404.469565 C1006.71438,405.610377 1006.50696,406.647478 1006.19583,407.58087 C1005.67728,409.343942 1005.26243,410.588464 1005.26243,410.588464 C1005.26243,410.588464 1005.26243,409.343942 1005.46986,407.477159 C1005.57357,406.543768 1005.67728,405.506667 1005.8847,404.262145 C1005.98841,403.639884 1006.09212,403.121333 1006.19583,402.499072 L1006.50696,400.63229 L1003.9142,399.906319 L1006.71438,399.595188 C1006.81809,399.387768 1006.81809,399.076638 1006.9218,398.869217 C1007.02551,398.558087 1007.02551,398.246957 1007.12922,397.935826 L1007.44035,397.002435 C1007.44035,397.002435 1007.75148,396.380174 1007.9589,396.172754 C1008.06261,396.069043 1008.16632,395.861623 1008.37374,395.757913 C1008.47745,395.654203 1008.58116,395.654203 1008.68487,395.550493 L1009.20342,395.550493 L1011.48504,387.149971 L1010.44794,395.757913 L1010.55165,395.757913 C1012.41843,396.069043 1013.66296,396.380174 1013.66296,396.380174 C1013.66296,396.380174 1012.31472,396.483884 1010.44794,396.380174 L1010.44794,396.380174 Z M904.559884,339.339594 L887.55142,343.59171 C886.514319,343.902841 885.269797,344.836232 884.854957,345.769623 L880.810261,355.103536 C880.39542,356.036928 880.913971,356.555478 882.054783,356.244348 L899.063246,351.992232 C900.100348,351.681101 901.34487,350.74771 901.75971,349.814319 L905.804406,340.480406 C906.115536,339.547014 905.596986,339.028464 904.559884,339.339594 Z M902.278261,343.073159 C901.44858,343.902841 900.515188,344.836232 899.478087,345.769623 C898.752116,346.495594 897.922435,347.117855 897.092754,347.843826 L899.270667,351.058841 L895.848232,348.880928 C895.329681,349.295768 894.914841,349.606899 894.39629,350.021739 C893.981449,350.33287 893.670319,350.54029 893.255478,350.644 C892.840638,350.74771 892.425797,350.95513 891.803536,350.85142 C891.492406,350.85142 891.181275,350.74771 890.870145,350.54029 C890.766435,350.43658 890.662725,350.43658 890.662725,350.33287 L890.559014,350.229159 L890.455304,350.125449 L882.780754,355.207246 L889.210783,348.777217 C889.003362,348.466087 888.795942,348.258667 888.588522,348.051246 C887.13658,346.288174 886.306899,345.043652 886.306899,345.043652 C886.306899,345.043652 887.65513,345.873333 889.418203,347.221565 C889.833043,347.532696 890.351594,347.947536 890.870145,348.362377 C891.284986,348.673507 892.114667,349.399478 891.907246,349.192058 C892.218377,349.192058 892.840638,348.880928 893.255478,348.569797 C893.774029,348.154957 894.39629,347.636406 894.914841,347.117855 C896.055652,346.184464 897.300174,345.251072 898.440986,344.421391 C899.581797,343.59171 900.618899,342.865739 901.656,342.243478 C903.522783,340.998957 904.871014,340.376696 904.871014,340.376696 C904.871014,340.376696 903.833913,341.517507 902.278261,343.073159 L902.278261,343.073159 Z M946.251362,381.342203 C947.910725,379.16429 948.740406,375.534435 948.118145,373.252812 L941.895536,349.399478 C941.273275,347.014145 939.406493,346.806725 937.74713,348.984638 L911.923304,382.483014 C910.263942,384.660928 909.434261,388.290783 910.056522,390.572406 L916.27913,414.425739 C916.901391,416.811072 918.768174,417.018493 920.427536,414.84058 L946.251362,381.342203 Z M927.064986,380.408812 C926.650145,382.068174 926.339014,383.831246 925.924174,385.594319 C925.509333,387.357391 925.094493,389.120464 924.679652,390.779826 C924.264812,392.542899 923.849971,394.202261 923.43513,395.861623 C922.605449,399.180348 921.775768,402.187942 921.049797,404.780696 C919.597855,409.966203 918.457043,413.388638 918.457043,413.388638 C918.457043,413.388638 918.871884,409.758783 919.908986,404.469565 C920.427536,401.773101 920.946087,398.765507 921.672058,395.446783 C921.983188,393.78742 922.398029,392.128058 922.709159,390.364986 C922.91658,389.224174 923.22771,388.083362 923.43513,386.942551 L912.960406,384.972058 L923.849971,385.179478 C924.264812,383.416406 924.679652,381.757043 925.094493,379.993971 C925.405623,379.06058 925.716754,378.127188 926.235304,377.297507 C926.753855,376.467826 927.272406,375.741855 928.205797,375.119594 C928.620638,374.808464 929.139188,374.497333 929.761449,374.497333 L930.59113,374.497333 L931.213391,374.601043 C931.524522,374.601043 931.835652,374.704754 932.146783,374.704754 L938.265681,352.303362 L934.117275,375.015884 C935.465507,375.223304 936.710029,375.430725 937.954551,375.534435 C943.347478,376.364116 946.873623,377.090087 946.873623,377.090087 C946.873623,377.090087 943.243768,377.090087 937.850841,376.778957 C936.502609,376.675246 935.050667,376.675246 933.495014,376.467826 C932.769043,376.364116 931.939362,376.364116 931.109681,376.260406 L930.07258,376.260406 C929.865159,376.260406 929.657739,376.364116 929.346609,376.571536 C928.205797,377.297507 927.479826,378.95687 927.064986,380.408812 L927.064986,380.408812 Z M312.167536,38.2690435 L290.906957,23.7496232 C289.558725,22.8162319 287.484522,22.5051014 286.34371,23.0236522 L274.520754,28.1054493 C273.379942,28.624 273.483652,29.7648116 274.831884,30.6982029 L296.092464,45.113913 C297.440696,46.0473043 299.514899,46.3584348 300.65571,45.8398841 L312.478667,40.758087 C313.723188,40.3432464 313.515768,39.2024348 312.167536,38.2690435 Z M297.959246,37.1282319 L297.959246,37.4393623 C298.062957,38.3727536 298.166667,39.2024348 298.166667,39.9284058 C298.477797,43.0397101 298.477797,45.2176232 298.477797,45.2176232 L297.440696,40.0321159 C297.336986,39.3061449 297.129565,38.3727536 297.025855,37.5430725 C296.922145,36.7133913 296.714725,35.78 296.611014,34.8466087 C296.507304,34.5354783 296.196174,34.2243478 295.885043,34.0169275 C295.573913,33.8095072 295.159072,33.4983768 294.640522,33.3946667 C294.433101,33.2909565 294.225681,33.2909565 294.018261,33.1872464 C293.914551,33.1872464 293.810841,33.1872464 293.70713,33.0835362 L293.29229,32.9798261 C292.773739,32.8761159 292.255188,32.7724058 291.736638,32.7724058 C290.699536,32.5649855 289.662435,32.4612754 288.625333,32.2538551 C287.588232,32.0464348 286.654841,31.8390145 285.617739,31.7353043 C283.647246,31.4241739 281.884174,31.0093333 280.328522,30.6982029 C277.217217,30.075942 275.246725,29.5573913 275.246725,29.5573913 C275.246725,29.5573913 277.320928,29.6611014 280.432232,30.075942 C281.987884,30.2833623 283.854667,30.4907826 285.721449,30.801913 C286.654841,30.9056232 287.691942,31.1130435 288.729043,31.2167536 C289.143884,31.3204638 289.558725,31.3204638 289.869855,31.4241739 L289.558725,24.7867246 L291.010667,31.6315942 C291.321797,31.6315942 291.529217,31.7353043 291.840348,31.7353043 L293.396,32.0464348 L293.810841,32.1501449 C293.914551,32.1501449 294.018261,32.1501449 294.225681,32.2538551 C294.536812,32.3575652 294.744232,32.4612754 295.055362,32.4612754 C295.573913,32.6686957 296.092464,32.9798261 296.507304,33.2909565 C296.922145,33.602087 297.336986,34.1206377 297.544406,34.7428986 C297.544406,34.9503188 297.544406,35.054029 297.648116,35.1577391 L297.648116,35.4688696 C297.648116,35.6762899 297.648116,35.8837101 297.751826,36.0911304 L310.404464,38.7875942 L297.959246,37.1282319 L297.959246,37.1282319 Z M473.540522,44.1805217 L452.072522,28.5202899 C450.72429,27.4831884 448.235246,26.8609275 446.575884,27.172058 L429.982261,29.5573913 C428.322899,29.7648116 428.115478,30.801913 429.46371,31.8390145 L450.93171,47.4992464 C452.279942,48.5363478 454.768986,49.1586087 456.428348,48.8474783 L473.021971,46.4621449 C474.681333,46.2547246 474.888754,45.2176232 473.540522,44.1805217 Z M455.806087,42.5211594 C454.768986,45.8398841 453.939304,47.914087 453.939304,47.914087 C453.939304,47.914087 454.043014,45.6324638 454.561565,42.210029 C454.665275,41.3803478 454.768986,40.4469565 454.976406,39.5135652 C454.976406,39.3061449 455.080116,38.9950145 455.080116,38.7875942 C455.080116,38.6838841 455.080116,38.7875942 455.080116,38.7875942 L454.976406,38.6838841 C454.872696,38.4764638 454.457855,38.2690435 454.043014,38.0616232 C453.213333,37.6467826 452.279942,37.4393623 451.13913,37.1282319 C449.998319,36.8171014 448.961217,36.6096812 447.820406,36.2985507 C446.679594,35.9874203 445.642493,35.6762899 444.501681,35.4688696 C443.36087,35.1577391 442.323768,34.8466087 441.286667,34.5354783 C439.212464,33.9132174 437.345681,33.2909565 435.686319,32.7724058 C432.471304,31.6315942 430.293391,30.801913 430.293391,30.801913 C430.293391,30.801913 432.575014,31.0093333 435.997449,31.5278841 C437.656812,31.8390145 439.627304,32.1501449 441.805217,32.5649855 C442.842319,32.7724058 443.98313,32.9798261 445.020232,33.2909565 C446.057333,33.4983768 446.990725,33.8095072 448.027826,34.0169275 L450.102029,28.9351304 L449.790899,34.5354783 C450.413159,34.7428986 451.03542,34.8466087 451.553971,35.054029 C452.591072,35.2614493 453.835594,35.6762899 454.872696,36.2985507 C455.391246,36.6096812 455.909797,37.0245217 456.324638,37.6467826 C456.428348,37.8542029 456.532058,38.0616232 456.532058,38.2690435 L456.532058,38.6838841 C456.532058,38.7875942 456.532058,38.9950145 456.428348,38.9950145 C456.428348,39.0987246 456.324638,39.3061449 456.324638,39.4098551 L470.947768,44.1805217 L455.702377,41.484058 C456.013507,41.8988986 455.909797,42.210029 455.806087,42.5211594 L455.806087,42.5211594 Z M769.840406,128.91171 L713.836928,125.489275 C710.310783,125.281855 705.643826,126.630087 703.465913,128.60058 L681.583072,148.201797 C679.405159,150.17229 680.545971,151.935362 684.072116,152.142783 L740.075594,155.565217 C743.601739,155.772638 748.268696,154.424406 750.446609,152.453913 L772.329449,132.852696 C774.611072,130.882203 773.470261,129.11913 769.840406,128.91171 Z M759.158261,135.341739 C755.943246,136.482551 752.209681,137.727072 748.268696,139.075304 C746.298203,139.697565 744.224,140.423536 742.046087,141.045797 C740.283014,141.564348 738.519942,142.186609 736.653159,142.705159 L741.942377,153.076174 L734.267826,143.43113 C732.504754,143.949681 730.845391,144.468232 729.082319,144.986783 C728.563768,145.090493 727.941507,145.297913 727.422957,145.401623 C726.800696,145.505333 726.282145,145.609043 725.659884,145.712754 C724.519072,145.920174 723.378261,145.920174 722.237449,145.920174 C721.096638,145.816464 719.955826,145.712754 718.711304,144.986783 C718.400174,144.779362 718.089043,144.571942 717.881623,144.260812 C717.777913,144.053391 717.674203,143.949681 717.674203,143.845971 L717.466783,143.534841 C717.259362,143.12 716.948232,142.705159 716.740812,142.290319 L687.18342,149.861159 L715.39258,140.112406 C714.874029,139.282725 714.355478,138.453043 713.940638,137.623362 C710.518203,131.815594 708.444,127.770899 708.444,127.770899 C708.444,127.770899 711.244174,131.297043 715.185159,136.793681 C716.118551,138.141913 717.259362,139.697565 718.296464,141.253217 C718.607594,141.668058 718.815014,142.082899 719.126145,142.497739 L719.333565,142.80887 L719.540986,143.01629 C719.644696,143.12 719.644696,143.12 719.852116,143.22371 C720.370667,143.534841 721.407768,143.742261 722.341159,143.742261 C723.274551,143.742261 724.311652,143.638551 725.245043,143.43113 C725.763594,143.32742 726.178435,143.22371 726.696986,143.12 C727.215536,143.01629 727.734087,142.80887 728.252638,142.705159 C730.326841,142.082899 732.504754,141.356928 734.682667,140.734667 C736.86058,140.112406 739.038493,139.490145 741.112696,138.867884 C743.186899,138.245623 745.364812,137.727072 747.335304,137.104812 C751.38,135.964 755.217275,135.030609 758.536,134.200928 C765.069739,132.541565 769.529275,131.711884 769.529275,131.711884 C769.529275,131.711884 765.48458,133.163826 759.158261,135.341739 L759.158261,135.341739 Z M208.249971,1.45194203 C208.042551,0.829681159 207.42029,0.829681159 206.901739,1.34823188 L198.812348,10.4747246 C198.293797,11.0969855 198.086377,12.0303768 198.293797,12.6526377 L200.67913,18.8752464 C200.886551,19.4975072 201.508812,19.4975072 202.027362,18.9789565 L210.116754,9.85246377 C210.635304,9.2302029 210.842725,8.29681159 210.635304,7.67455072 L208.249971,1.45194203 Z M206.383188,9.95617391 L206.175768,10.6821449 C206.072058,10.9932754 205.968348,11.3044058 205.760928,11.6155362 C205.553507,11.9266667 205.346087,12.134087 205.034957,12.3415072 C204.827536,12.4452174 204.620116,12.5489275 204.412696,12.5489275 L203.790435,12.5489275 L201.819942,18.1492754 L202.442203,12.4452174 C202.027362,12.3415072 201.612522,12.3415072 201.197681,12.2377971 C199.642029,12.0303768 198.604928,11.7192464 198.604928,11.7192464 C198.604928,11.7192464 199.642029,11.5118261 201.197681,11.4081159 C202.027362,11.3044058 202.857043,11.3044058 203.894145,11.3044058 L204.101565,11.3044058 L204.205275,11.2006957 L204.516406,10.8895652 C204.620116,10.6821449 204.620116,10.5784348 204.723826,10.3710145 L204.931246,9.64504348 C205.138667,8.60794203 205.449797,7.67455072 205.657217,6.74115942 C205.968348,5.80776812 206.175768,4.97808696 206.486899,4.25211594 C207.005449,2.80017391 207.524,1.86678261 207.524,1.86678261 C207.524,1.86678261 207.524,2.90388406 207.31658,4.45953623 C207.21287,5.18550725 207.109159,6.11889855 206.901739,7.05228986 L206.590609,8.60794203 L209.598203,9.33391304 L206.383188,9.74875362 L206.383188,9.95617391 L206.383188,9.95617391 Z M148.305507,42.8322899 L135.134319,39.3061449 C134.304638,39.0987246 133.060116,39.2024348 132.437855,39.5135652 L125.696696,43.1434203 C125.074435,43.4545507 125.178145,43.9731014 126.007826,44.1805217 L139.179014,47.7066667 C140.008696,47.914087 141.253217,47.8103768 141.875478,47.4992464 L148.616638,43.8693913 C149.238899,43.5582609 149.135188,43.1434203 148.305507,42.8322899 Z M145.297913,44.1805217 C144.468232,44.387942 143.534841,44.4916522 142.497739,44.6990725 L139.697565,45.0102029 L139.801275,47.3955362 L138.556754,45.113913 C138.245623,45.113913 137.934493,45.113913 137.623362,45.2176232 C137.104812,45.2176232 136.378841,45.3213333 135.86029,45.113913 C135.549159,45.0102029 135.238029,45.0102029 134.926899,44.6990725 C134.719478,44.5953623 134.615768,44.387942 134.408348,44.0768116 L134.408348,43.8693913 L126.941217,43.8693913 L134.097217,42.5211594 L134.097217,42.3137391 C133.786087,40.6543768 133.682377,39.5135652 133.682377,39.5135652 C133.682377,39.5135652 134.200928,40.5506667 134.926899,42.1063188 C135.134319,42.5211594 135.238029,42.936 135.445449,43.3508406 L135.549159,43.5582609 L135.549159,43.661971 C135.549159,43.661971 135.549159,43.7656812 135.549159,43.661971 C135.549159,43.5582609 135.549159,43.5582609 135.549159,43.661971 C135.65287,43.661971 135.86029,43.7656812 136.06771,43.7656812 L136.689971,43.7656812 C136.689971,43.7656812 137.208522,43.661971 137.415942,43.661971 C137.934493,43.5582609 138.556754,43.5582609 139.075304,43.4545507 C140.216116,43.3508406 141.253217,43.2471304 142.290319,43.2471304 C143.32742,43.2471304 144.260812,43.1434203 145.194203,43.2471304 C146.853565,43.2471304 147.994377,43.4545507 147.994377,43.4545507 C147.994377,43.4545507 146.957275,43.8693913 145.297913,44.1805217 L145.297913,44.1805217 Z M1.55565217,68.3449855 L13.8971594,63.0557681 C14.7268406,62.7446377 15.4528116,61.9149565 15.5565217,61.2926957 L16.9047536,54.8626667 C17.0084638,54.2404058 16.489913,54.0329855 15.763942,54.3441159 L3.42243478,59.6333333 C2.59275362,59.9444638 1.86678261,60.7741449 1.76307246,61.3964058 L0.41484058,67.8264348 C0.20742029,68.4486957 0.725971014,68.7598261 1.55565217,68.3449855 Z M5.60034783,62.6409275 C5.39292754,62.5372174 5.0817971,62.3297971 4.87437681,62.226087 C3.52614493,61.3964058 2.59275362,60.6704348 2.59275362,60.6704348 C2.59275362,60.6704348 3.62985507,60.8778551 5.18550725,61.3964058 C5.60034783,61.5001159 6.01518841,61.7075362 6.43002899,61.8112464 C6.63744928,61.9149565 6.84486957,62.0186667 7.05228986,62.0186667 C7.25971014,62.1223768 7.57084058,62.226087 7.57084058,62.226087 C7.77826087,62.226087 8.19310145,62.0186667 8.50423188,61.7075362 C8.81536232,61.5001159 9.2302029,60.9815652 9.54133333,60.5667246 C10.2673043,59.7370435 11.0969855,59.0110725 11.8229565,58.2851014 C12.5489275,57.5591304 13.2748986,56.9368696 13.8971594,56.4183188 C15.1416812,55.3812174 16.0750725,54.7589565 16.0750725,54.7589565 C16.0750725,54.7589565 15.5565217,55.6923478 14.5194203,57.0405797 C14.0008696,57.6628406 13.4823188,58.3888116 12.7563478,59.2184928 C12.3415072,59.6333333 11.9266667,60.1518841 11.5118261,60.6704348 L13.7934493,62.3297971 L10.6821449,61.6038261 L10.5784348,61.7075362 L9.33391304,62.952058 C9.12649275,63.1594783 8.81536232,63.2631884 8.50423188,63.4706087 C8.19310145,63.5743188 7.88197101,63.678029 7.46713043,63.678029 C7.36342029,63.678029 7.25971014,63.678029 7.156,63.5743188 L6.94857971,63.5743188 C6.84486957,63.5743188 6.84486957,63.4706087 6.74115942,63.4706087 L1.76307246,67.7227246 L5.60034783,62.6409275 L5.60034783,62.6409275 Z M49.7808696,36.9208116 L66.2707826,45.7361739 C67.3078841,46.2547246 69.0709565,46.4621449 70.108058,46.2547246 L80.9976232,43.2471304 C82.0347246,42.936 82.1384348,42.210029 81.1013333,41.6914783 L64.6114203,32.8761159 C63.5743188,32.3575652 61.8112464,32.1501449 60.7741449,32.3575652 L49.8845797,35.3651594 C48.8474783,35.6762899 48.7437681,36.2985507 49.7808696,36.9208116 Z M61.9149565,37.231942 C61.9149565,37.0245217 61.9149565,36.8171014 62.0186667,36.6096812 C62.3297971,34.2243478 62.5372174,32.6686957 62.5372174,32.6686957 C62.5372174,32.6686957 62.7446377,34.2243478 62.8483478,36.6096812 C62.8483478,37.231942 62.8483478,37.8542029 62.952058,38.4764638 L62.952058,38.8913043 L63.0557681,38.9950145 C63.2631884,39.0987246 63.4706087,39.3061449 63.7817391,39.4098551 C64.404,39.6172754 65.0262609,39.7209855 65.855942,39.7209855 C66.581913,39.8246957 67.4115942,39.9284058 68.1375652,39.9284058 C68.9672464,40.0321159 69.6932174,40.1358261 70.4191884,40.2395362 C71.1451594,40.3432464 71.9748406,40.4469565 72.7008116,40.5506667 C74.1527536,40.758087 75.5009855,41.0692174 76.6417971,41.2766377 C78.9234203,41.6914783 80.4790725,42.210029 80.4790725,42.210029 C80.4790725,42.210029 78.9234203,42.3137391 76.538087,42.1063188 C75.3972754,42.1063188 73.9453333,42.0026087 72.4933913,41.7951884 C71.7674203,41.6914783 71.0414493,41.6914783 70.2117681,41.5877681 C69.4857971,41.484058 68.7598261,41.3803478 68.0338551,41.3803478 L67.3078841,45.0102029 L66.7893333,41.1729275 C66.3744928,41.0692174 65.9596522,41.0692174 65.5448116,40.9655072 C64.8188406,40.8617971 63.8854493,40.758087 63.1594783,40.4469565 C62.7446377,40.2395362 62.4335072,40.1358261 62.0186667,39.7209855 C61.8112464,39.5135652 61.6038261,39.3061449 61.6038261,38.8913043 L61.6038261,38.3727536 L51.1291014,36.4022609 L61.9149565,37.231942 L61.9149565,37.231942 Z" id="Shape"></path>
                <path d="M282.299014,33.602087 C282.091594,32.8761159 281.365623,32.8761159 280.743362,33.4983768 L271.098319,43.661971 C270.476058,44.2842319 270.164928,45.4250435 270.372348,46.1510145 L272.757681,53.3070145 C272.965101,54.0329855 273.691072,54.0329855 274.313333,53.4107246 L283.958377,43.2471304 C284.580638,42.6248696 284.891768,41.484058 284.684348,40.758087 L282.299014,33.602087 Z M281.158203,42.0026087 C280.224812,42.0026087 279.18771,41.8988986 278.150609,41.8988986 L277.839478,41.8988986 C277.735768,41.8988986 277.632058,42.0026087 277.528348,42.0026087 C277.320928,42.1063188 277.217217,42.3137391 277.009797,42.5211594 C276.906087,42.7285797 276.802377,42.936 276.698667,43.2471304 C276.594957,43.5582609 276.594957,43.7656812 276.491246,44.0768116 C276.283826,44.5953623 276.180116,45.2176232 275.972696,45.7361739 C275.765275,46.2547246 275.661565,46.8769855 275.454145,47.3955362 C275.143014,48.4326377 274.831884,49.4697391 274.520754,50.2994203 C274.002203,51.9587826 273.483652,53.0995942 273.483652,53.0995942 C273.483652,53.0995942 273.691072,51.9587826 274.105913,50.1957101 C274.313333,49.366029 274.520754,48.3289275 274.831884,47.1881159 C274.935594,46.6695652 275.143014,46.0473043 275.246725,45.5287536 C275.246725,45.4250435 275.350435,45.2176232 275.350435,45.113913 L271.409449,44.4916522 L275.557855,44.4916522 C275.661565,44.2842319 275.661565,44.0768116 275.765275,43.8693913 C275.868986,43.5582609 275.972696,43.2471304 275.972696,43.0397101 C276.076406,42.7285797 276.180116,42.4174493 276.387536,42.1063188 C276.594957,41.7951884 276.802377,41.5877681 277.113507,41.3803478 C277.217217,41.2766377 277.424638,41.1729275 277.632058,41.1729275 L278.669159,41.1729275 L280.950783,34.4317681 L279.39513,41.2766377 C280.017391,41.3803478 280.639652,41.3803478 281.261913,41.484058 C283.024986,41.6914783 284.165797,41.8988986 284.165797,41.8988986 C284.165797,41.8988986 283.024986,42.0026087 281.158203,42.0026087 L281.158203,42.0026087 Z M390.883536,36.0911304 C390.157565,36.4022609 390.157565,37.0245217 390.779826,37.6467826 L401.461971,47.1881159 C402.187942,47.8103768 403.225043,48.1215072 403.951014,47.8103768 L411.210725,45.113913 C411.936696,44.8027826 411.936696,44.1805217 411.314435,43.5582609 L400.63229,34.0169275 C399.906319,33.3946667 398.869217,33.0835362 398.143246,33.3946667 L390.883536,36.0911304 Z M399.387768,37.0245217 L399.387768,40.4469565 C399.387768,40.5506667 399.491478,40.6543768 399.491478,40.758087 C399.595188,40.9655072 399.802609,41.0692174 400.010029,41.2766377 C400.217449,41.3803478 400.42487,41.484058 400.736,41.5877681 C401.04713,41.6914783 401.358261,41.6914783 401.565681,41.7951884 C402.187942,41.8988986 402.706493,42.1063188 403.328754,42.210029 C403.951014,42.3137391 404.469565,42.5211594 404.988116,42.6248696 C406.128928,42.936 407.062319,43.2471304 407.99571,43.4545507 C409.758783,43.9731014 410.899594,44.387942 410.899594,44.387942 C410.899594,44.387942 409.655072,44.1805217 407.892,43.8693913 C406.958609,43.661971 405.921507,43.4545507 404.884406,43.2471304 C404.365855,43.1434203 403.743594,43.0397101 403.225043,42.8322899 C403.121333,42.8322899 402.913913,42.7285797 402.810203,42.7285797 L402.291652,46.7732754 L402.084232,42.5211594 C401.876812,42.5211594 401.669391,42.4174493 401.461971,42.4174493 C401.150841,42.3137391 400.83971,42.3137391 400.52858,42.210029 C400.217449,42.1063188 399.906319,42.0026087 399.595188,41.7951884 C399.284058,41.5877681 399.076638,41.3803478 398.869217,41.0692174 C398.765507,40.9655072 398.661797,40.758087 398.661797,40.5506667 L398.661797,40.0321159 L398.661797,39.5135652 L391.713217,37.4393623 L398.661797,38.7875942 C398.765507,38.1653333 398.765507,37.5430725 398.869217,36.9208116 C399.076638,35.1577391 399.284058,33.9132174 399.284058,33.9132174 C399.284058,33.9132174 399.387768,35.1577391 399.387768,37.0245217 L399.387768,37.0245217 Z M224.117623,58.0776812 L204.308986,50.092 C203.064464,49.5734493 201.093971,49.5734493 199.953159,49.9882899 L188.337623,54.5515362 C187.196812,54.9663768 187.300522,55.796058 188.545043,56.3146087 L208.353681,64.3002899 C209.598203,64.8188406 211.568696,64.8188406 212.709507,64.404 L224.325043,59.8407536 C225.465855,59.425913 225.362145,58.5962319 224.117623,58.0776812 Z M210.324174,58.699942 C210.324174,59.0110725 210.324174,59.3222029 210.427884,59.6333333 C210.635304,62.3297971 210.635304,64.0928696 210.635304,64.0928696 C210.635304,64.0928696 210.324174,62.3297971 209.909333,59.7370435 C209.805623,59.1147826 209.701913,58.3888116 209.598203,57.6628406 L209.598203,57.3517101 L209.598203,57.1442899 C209.598203,57.0405797 209.494493,56.9368696 209.390783,56.9368696 C209.079652,56.7294493 208.768522,56.6257391 208.353681,56.522029 C207.938841,56.4183188 207.62771,56.4183188 207.21287,56.3146087 L203.271884,56.3146087 C202.338493,56.3146087 201.508812,56.2108986 200.67913,56.2108986 C199.849449,56.2108986 198.916058,56.1071884 198.086377,56.1071884 C196.427014,56.0034783 194.871362,55.8997681 193.52313,55.8997681 C190.826667,55.6923478 189.063594,55.4849275 189.063594,55.4849275 C189.063594,55.4849275 190.826667,55.3812174 193.52313,55.2775072 L203.375594,55.2775072 L203.271884,50.817971 L204.205275,55.2775072 C204.827536,55.2775072 205.346087,55.2775072 205.968348,55.3812174 C206.798029,55.3812174 207.73142,55.4849275 208.561101,55.6923478 C208.975942,55.796058 209.390783,56.0034783 209.805623,56.3146087 C210.013043,56.4183188 209.701913,56.7294493 209.805623,57.0405797 C209.805623,57.248 209.390783,57.3517101 209.390783,57.4554203 L209.390783,57.7665507 C209.390783,57.8702609 209.909333,57.8702609 209.909333,57.973971 L222.458261,58.699942 L210.324174,58.699942 L210.324174,58.699942 Z M113.251478,23.2310725 L101.635942,21.468 C100.909971,21.3642899 99.7691594,21.7791304 99.1468986,22.4013913 L92.8205797,28.8314203 C92.1983188,29.4536812 92.302029,30.075942 93.028,30.1796522 L104.643536,31.9427246 C105.369507,32.0464348 106.510319,31.6315942 107.13258,31.0093333 L113.458899,24.5793043 C114.081159,23.9570435 114.081159,23.3347826 113.251478,23.2310725 Z M112.318087,24.4755942 C111.903246,24.6830145 111.177275,24.9941449 110.451304,25.3052754 C109.621623,25.6164058 108.688232,26.0312464 107.754841,26.446087 L106.199188,27.0683478 C105.784348,27.2757681 105.369507,27.3794783 104.954667,27.5868986 L105.265797,31.3204638 L104.539826,27.7943188 L102.984174,28.4165797 C102.673043,28.5202899 102.361913,28.5202899 102.050783,28.624 C101.739652,28.624 101.428522,28.624 101.117391,28.3128696 L100.909971,28.1054493 L99.6654493,28.1054493 L100.28771,28.0017391 L100.598841,27.898029 C100.598841,27.7943188 100.702551,27.5868986 100.702551,27.4831884 C100.702551,27.4831884 100.806261,27.3794783 100.806261,27.2757681 L93.9613913,29.6611014 L100.806261,26.7572174 L100.806261,26.6535072 C100.702551,26.1349565 100.702551,25.7201159 100.702551,25.3052754 C100.598841,24.4755942 100.598841,23.7496232 100.49513,23.2310725 C100.49513,22.7125217 100.39142,22.4013913 100.39142,22.4013913 C100.39142,22.4013913 100.49513,22.7125217 100.598841,23.1273623 C100.702551,23.645913 100.806261,24.3718841 101.013681,25.2015652 C101.117391,25.6164058 101.117391,26.1349565 101.221101,26.5497971 C101.221101,26.7572174 101.324812,27.0683478 101.324812,27.2757681 C101.324812,27.3794783 101.324812,27.4831884 101.428522,27.6906087 L101.428522,27.898029 L101.532232,28.0017391 C101.532232,28.0017391 101.947072,28.2091594 102.154493,28.1054493 C102.361913,28.1054493 102.673043,28.0017391 102.880464,28.0017391 L104.436116,27.3794783 L105.991768,26.7572174 L107.54742,26.1349565 C108.584522,25.7201159 109.517913,25.4089855 110.347594,25.0978551 C111.177275,24.6830145 111.799536,24.4755942 112.318087,24.4755942 C112.732928,24.2681739 113.044058,24.1644638 113.044058,24.1644638 C113.044058,24.1644638 112.836638,24.2681739 112.318087,24.4755942 L112.318087,24.4755942 Z M576.835826,65.2336812 L532.551594,53.4107246 C529.75142,52.6847536 525.603014,52.9958841 523.425101,54.2404058 L500.92,66.4782029 C498.638377,67.7227246 499.156928,69.2783768 501.957101,70.0043478 L546.241333,81.8273043 C549.041507,82.5532754 553.189913,82.2421449 555.367826,80.9976232 L577.872928,68.7598261 C580.050841,67.5153043 579.636,65.9596522 576.835826,65.2336812 Z M566.775942,68.7598261 C563.975768,69.1746667 560.760754,69.5895072 557.234609,70.0043478 C555.471536,70.2117681 553.708464,70.4191884 551.841681,70.6266087 C550.078609,70.834029 548.315536,70.9377391 546.552464,71.1451594 L548.315536,80.3753623 L544.581971,71.3525797 C543.337449,71.4562899 541.989217,71.56 540.744696,71.6637101 C538.981623,71.8711304 536.90742,71.9748406 535.144348,71.56 C534.210957,71.3525797 533.277565,71.1451594 532.447884,70.5228986 C532.033043,70.2117681 531.514493,69.7969275 531.307072,69.1746667 C531.203362,68.9672464 531.203362,68.9672464 531.203362,68.8635362 L531.099652,68.5524058 L530.995942,67.9301449 C530.995942,67.8264348 530.892232,67.7227246 530.892232,67.5153043 L505.172116,68.7598261 L530.373681,65.3373913 C530.166261,64.7151304 530.062551,64.0928696 529.958841,63.4706087 C528.610609,57.973971 527.884638,54.3441159 527.884638,54.3441159 C527.884638,54.3441159 529.33658,57.8702609 531.099652,63.1594783 C531.514493,64.5077101 532.033043,65.9596522 532.551594,67.4115942 L532.759014,68.0338551 L532.862725,68.3449855 C532.862725,68.4486957 532.966435,68.5524058 532.966435,68.5524058 C532.966435,68.6561159 533.173855,68.8635362 533.484986,68.9672464 C534.003536,69.2783768 534.833217,69.4857971 535.559188,69.5895072 C536.38887,69.6932174 537.218551,69.7969275 538.048232,69.6932174 C538.877913,69.6932174 539.811304,69.4857971 540.744696,69.4857971 C542.611478,69.2783768 544.478261,69.0709565 546.241333,68.9672464 C548.108116,68.7598261 549.974899,68.6561159 551.841681,68.4486957 C553.708464,68.2412754 555.471536,68.1375652 557.234609,68.0338551 C560.760754,67.8264348 563.975768,67.6190145 566.775942,67.5153043 C572.37629,67.3078841 576.109855,67.3078841 576.109855,67.3078841 C576.109855,67.3078841 572.37629,67.9301449 566.775942,68.7598261 L566.775942,68.7598261 Z M765.069739,239.259304 L791.100986,240.918667 C793.693739,241.126087 794.52342,239.674145 792.967768,237.703652 L768.699594,207.42029 C767.143942,205.449797 763.825217,203.790435 761.232464,203.583014 L735.201217,201.923652 C732.608464,201.716232 731.778783,203.168174 733.334435,205.138667 L757.602609,235.422029 C759.158261,237.392522 762.476986,239.155594 765.069739,239.259304 Z M755.632116,218.620986 C755.735826,218.413565 755.839536,218.206145 755.839536,218.102435 L756.046957,217.895014 L756.358087,217.376464 C756.358087,217.376464 756.358087,217.272754 756.461797,217.272754 L736.653159,205.760928 L757.913739,215.094841 C758.43229,214.36887 758.84713,213.642899 759.365681,213.020638 C762.269565,208.664812 764.447478,205.968348 764.447478,205.968348 C764.447478,205.968348 763.099246,209.183362 760.713913,213.850319 C760.091652,214.99113 759.469391,216.235652 758.74342,217.583884 C758.536,217.895014 758.43229,218.206145 758.22487,218.620986 L757.913739,219.139536 L757.810029,219.346957 L757.810029,219.450667 C757.810029,219.450667 757.913739,219.969217 758.43229,220.487768 C758.84713,221.006319 759.469391,221.421159 760.091652,221.836 C760.713913,222.250841 761.336174,222.561971 762.165855,222.976812 C763.721507,223.702783 765.277159,224.532464 766.832812,225.258435 C768.388464,226.088116 769.944116,226.814087 771.396058,227.643768 C772.95171,228.473449 774.403652,229.30313 775.855594,230.029101 C778.759478,231.584754 781.352232,233.140406 783.530145,234.488638 C787.989681,237.185101 790.893565,239.155594 790.893565,239.155594 C790.893565,239.155594 787.574841,238.014783 782.804174,235.94058 C780.418841,234.903478 777.618667,233.658957 774.714783,232.310725 C773.262841,231.584754 771.707188,230.962493 770.151536,230.132812 C768.803304,229.510551 767.455072,228.78458 766.210551,228.162319 L760.506493,235.525739 L764.136348,227.125217 L761.025043,225.569565 C760.299072,225.154725 759.469391,224.739884 758.63971,224.221333 C757.913739,223.702783 757.187768,223.080522 756.565507,222.250841 C756.254377,221.836 755.943246,221.421159 755.735826,220.902609 C755.528406,220.072928 755.320986,219.346957 755.632116,218.620986 L755.632116,218.620986 Z M456.739478,139.593855 L445.020232,128.289449 C444.294261,127.563478 442.738609,126.733797 441.597797,126.526377 L430.189681,123.933623 C429.04887,123.726203 428.737739,124.037333 429.46371,124.763304 L441.182957,136.06771 C441.908928,136.793681 443.46458,137.623362 444.605391,137.830783 L456.013507,140.423536 C457.154319,140.734667 457.465449,140.319826 456.739478,139.593855 Z M443.257159,136.897391 C443.257159,136.897391 443.98313,135.65287 445.227652,133.889797 C445.331362,133.682377 445.538783,133.474957 445.642493,133.267536 C445.642493,133.163826 445.538783,133.163826 445.435072,133.060116 C445.020232,132.748986 444.501681,132.437855 443.98313,132.126725 L442.116348,131.193333 L440.249565,130.259942 C440.249565,130.259942 439.005043,129.637681 438.382783,129.222841 C437.760522,128.91171 437.138261,128.60058 436.61971,128.185739 C435.478899,127.563478 434.441797,126.941217 433.508406,126.318957 C431.745333,125.178145 430.500812,124.348464 430.500812,124.348464 C430.500812,124.348464 431.849043,124.867014 433.819536,125.696696 C434.752928,126.111536 435.893739,126.630087 437.138261,127.252348 L439.005043,128.185739 L440.871826,129.11913 C441.182957,129.326551 441.597797,129.430261 441.908928,129.637681 L443.98313,127.978319 L442.842319,130.156232 C443.46458,130.467362 443.98313,130.778493 444.605391,131.089623 C445.227652,131.400754 445.746203,131.815594 446.264754,132.334145 C446.368464,132.437855 446.472174,132.645275 446.575884,132.852696 C446.575884,132.956406 446.679594,133.060116 446.679594,133.267536 L446.679594,133.578667 C446.679594,133.682377 446.575884,133.786087 446.575884,133.786087 L455.598667,139.179014 L445.746203,134.719478 C444.190551,136.06771 443.257159,136.897391 443.257159,136.897391 L443.257159,136.897391 Z" id="Shape"></path>
                <path d="M140.838377,4.66695652 L117.088754,10.5784348 C115.533101,10.9932754 113.977449,12.134087 113.458899,13.1711884 L108.377101,24.0607536 C107.858551,25.0978551 108.688232,25.7201159 110.243884,25.3052754 L133.993507,19.3937971 C135.549159,18.9789565 137.104812,17.8381449 137.623362,16.8010435 L142.705159,5.91147826 C143.22371,4.77066667 142.394029,4.25211594 140.838377,4.66695652 Z M137.623362,8.91907246 C136.482551,9.85246377 135.134319,10.8895652 133.682377,12.0303768 C132.956406,12.5489275 132.230435,13.1711884 131.400754,13.6897391 L130.156232,14.6231304 L134.304638,18.2529855 L129.11913,15.3491014 C129.11913,15.3491014 129.01542,15.3491014 129.01542,15.4528116 C128.185739,16.0750725 127.459768,16.5936232 126.630087,17.1121739 C125.696696,17.6307246 124.763304,18.0455652 123.622493,18.0455652 C123.311362,18.0455652 123.000232,18.0455652 122.689101,17.8381449 C122.274261,17.6307246 122.274261,17.5270145 122.066841,17.4233043 C121.96313,17.3195942 121.75571,17.2158841 121.652,17.1121739 L111.073565,23.9570435 L120.614899,16.2824928 C120.096348,15.8676522 119.577797,15.5565217 119.162957,15.1416812 C116.881333,13.3786087 115.325681,12.0303768 115.325681,12.0303768 C115.325681,12.0303768 117.088754,12.9637681 119.577797,14.5194203 C120.200058,14.9342609 120.926029,15.3491014 121.54829,15.763942 C121.85942,15.9713623 122.274261,16.1787826 122.585391,16.489913 C122.792812,16.5936232 123.000232,16.8010435 123.000232,16.8010435 C123.103942,16.8010435 123.311362,16.9047536 123.415072,16.8010435 C124.141043,16.8010435 124.970725,16.3862029 125.696696,15.9713623 C126.422667,15.4528116 127.252348,14.8305507 127.978319,14.312 C128.808,13.7934493 129.533971,13.1711884 130.363652,12.6526377 C131.193333,12.134087 131.919304,11.6155362 132.645275,10.9932754 C134.200928,9.95617391 135.549159,9.02278261 136.793681,8.19310145 L140.942087,5.60034783 C140.942087,5.60034783 139.904986,7.05228986 137.623362,8.91907246 L137.623362,8.91907246 Z M702.013971,131.089623 L682.101623,104.747246 C680.857101,103.087884 678.368058,101.635942 676.501275,101.635942 L665.40429,101.324812 C665.40429,101.324812 660.633623,101.117391 658.55942,101.324812 C656.485217,101.532232 655.862957,102.673043 656.692638,103.813855 C657.314899,104.747246 661.359594,109.932754 661.359594,109.932754 L676.812406,130.363652 C678.056928,132.023014 680.649681,133.474957 682.412754,133.474957 L700.97687,134.097217 C702.843652,134.097217 703.258493,132.748986 702.013971,131.089623 L702.013971,131.089623 Z M694.23571,129.533971 C692.368928,128.70429 690.191014,127.667188 687.805681,126.422667 C686.66487,125.800406 685.420348,125.281855 684.279536,124.555884 C683.553565,124.141043 682.931304,123.829913 682.205333,123.415072 L678.679188,130.052522 L680.234841,122.377971 C679.197739,121.75571 678.056928,121.133449 677.019826,120.511188 C675.671594,119.681507 674.530783,118.644406 673.804812,117.192464 C673.597391,116.777623 673.493681,116.362783 673.493681,115.844232 C673.493681,115.533101 673.493681,115.221971 673.597391,115.014551 L673.804812,114.59971 C673.908522,114.39229 673.908522,114.28858 674.012232,114.18487 L662.811536,106.821449 L663.018957,106.302899 L674.945623,111.903246 C675.256754,111.177275 675.567884,110.555014 675.775304,109.932754 C677.434667,106.095478 678.782899,103.710145 678.782899,103.710145 C678.782899,103.710145 678.264348,106.510319 677.123536,110.451304 C676.812406,111.488406 676.604986,112.525507 676.190145,113.666319 C675.982725,114.18487 675.879014,114.80713 675.671594,115.429391 L675.567884,115.844232 L675.567884,115.947942 C675.567884,116.051652 675.671594,116.259072 675.775304,116.362783 C676.190145,117.192464 677.227246,117.918435 678.160638,118.540696 C679.301449,119.162957 680.545971,119.888928 681.790493,120.511188 C683.035014,121.237159 684.175826,121.85942 685.420348,122.585391 C686.561159,123.207652 687.701971,123.933623 688.842783,124.659594 C691.020696,126.007826 693.094899,127.252348 694.857971,128.49687 C698.280406,130.778493 700.562029,132.541565 700.562029,132.541565 C700.562029,132.541565 697.969275,131.297043 694.23571,129.533971 L694.23571,129.533971 Z" id="Shape"></path>
            </g>
            <path d="M311.441565,142.186609 C310.611884,143.32742 309.782203,144.571942 309.263652,146.127594 C308.745101,147.579536 308.330261,149.342609 308.330261,151.105681 C308.330261,152.039072 308.433971,152.765043 308.641391,153.698435 C308.641391,153.802145 308.745101,153.905855 308.745101,154.009565 C302.315072,155.980058 295.573913,158.987652 288.832754,162.928638 C265.601681,176.722087 258.756812,208.249971 258.756812,208.249971 C258.756812,208.249971 289.662435,217.583884 312.997217,203.790435 C319.634667,199.849449 325.546145,195.389913 330.316812,190.722957 C330.524232,190.826667 330.627942,191.034087 330.731652,191.137797 C331.457623,191.760058 332.079884,192.174899 332.909565,192.693449 C334.465217,193.52313 336.12458,194.041681 337.680232,194.249101 C339.235884,194.456522 340.791536,194.456522 342.139768,194.249101 C344.939942,193.834261 347.221565,192.797159 349.399478,191.656348 C353.547884,189.271014 356.866609,186.056 359.563072,182.737275 C362.259536,179.314841 364.437449,175.581275 365.993101,171.744 C363.296638,174.959014 360.289043,177.759188 356.970319,180.040812 C353.651594,182.322435 350.125449,184.085507 346.599304,184.811478 C344.836232,185.226319 343.17687,185.330029 341.828638,185.018899 C341.102667,184.915188 340.584116,184.707768 340.169275,184.396638 C339.754435,184.085507 339.443304,183.774377 339.235884,183.463246 C339.132174,183.359536 339.028464,183.048406 339.028464,182.944696 C338.924754,182.737275 338.924754,182.633565 338.924754,182.426145 C338.821043,182.115014 338.821043,181.700174 338.821043,181.181623 L338.821043,180.663072 C341.413797,176.825797 343.28058,172.988522 344.110261,169.462377 C345.147362,165.313971 338.198783,153.387304 334.257797,152.142783 C330.524232,151.105681 326.064696,150.794551 321.086609,151.313101 C320.671768,151.105681 320.360638,150.898261 320.049507,150.690841 C319.945797,150.58713 319.738377,150.48342 319.634667,150.37971 C319.530957,150.37971 319.427246,150.06858 319.323536,149.96487 C319.116116,149.653739 319.012406,149.238899 319.012406,148.720348 C319.012406,148.201797 319.116116,147.579536 319.323536,146.957275 C319.738377,145.609043 320.671768,144.157101 321.81258,142.80887 C324.197913,140.112406 327.412928,137.830783 331.042783,135.964 C334.672638,134.200928 338.613623,132.852696 342.658319,132.126725 C338.509913,131.608174 334.154087,131.711884 329.901971,132.437855 C325.649855,133.163826 321.294029,134.512058 317.145623,137.001101 C315.17513,138.349333 313.204638,140.008696 311.441565,142.186609 L311.441565,142.186609 Z" id="Path" fill="#03709C"></path>
            <path d="M284.373217,180.040812 C289.662435,176.929507 296.403594,178.69258 299.514899,183.981797 C302.626203,189.271014 300.86313,196.012174 295.573913,199.123478 C290.284696,202.234783 283.543536,200.47171 280.432232,195.182493 C277.320928,189.996986 279.084,183.152116 284.373217,180.040812 Z" id="Path" fill="#FFFFFF"></path>
        </g>
    </g>
</svg>