<?xml version="1.0" encoding="UTF-8"?>
<svg width="1725px" height="471px" viewBox="0 0 1725 471" version="1.1" xmlns="http://www.w3.org/2000/svg" xmlns:xlink="http://www.w3.org/1999/xlink">
    <title>earthscape-rocket</title>
    <g id="Page-1" stroke="none" stroke-width="1" fill="none" fill-rule="evenodd">
        <g id="earthscape-rocket" fill-rule="nonzero">
            <g id="Group" transform="translate(0.000000, 47.000000)" fill="#03709C">
                <path d="M0.4,352.4 L3.8,348.7 L3.9,348.8 M12,340 L15.5,336.3 L15.9,336.8 L12.4,340.3 M23.8,327.7 L27.4,324.2 L28.1,325 L24.5,328.4 M35.9,315.7 L39.4,312.2 L40.4,313.3 L36.8,316.7 M48.1,303.9 L51.7,300.4 L53,301.8 L49.3,305.1 M60.5,292.2 L64.1,288.8 L65.6,290.5 L61.9,293.8 M73,280.7 L76.7,277.4 L78.4,279.3 L74.7,282.6 M85.8,269.5 L89.6,266.2 L91.4,268.4 L87.5,271.6 M98.7,258.4 L102.5,255.2 L104.5,257.6 L100.6,260.7 M111.8,247.6 L115.7,244.4 L117.7,246.9 L113.8,250 M125.1,236.9 L129,233.8 L131.1,236.5 L127.2,239.6 M138.5,226.4 L142.4,223.4 L144.7,226.3 L140.7,229.3 M152,216.1 L156,213.1 L158.4,216.3 L154.3,219.2 M165.7,206 L169.8,203.1 L172.2,206.5 L168.1,209.4 M179.6,196.1 L183.7,193.3 L186.2,196.8 L182,199.7 M193.6,186.5 L197.8,183.7 L200.3,187.4 L196.1,190.2 M207.8,177.1 L212,174.3 L214.5,178.2 L210.3,180.9 M222.1,167.8 L226.3,165.2 L228.8,169.1 L224.6,171.8 M236.6,158.8 L240.8,156.2 L243.3,160.3 L239,162.9 M251.2,150 L255.5,147.5 L257.9,151.6 L253.6,154.2 M265.9,141.5 L270.2,139 L272.6,143.2 L268.3,145.7 M280.7,133.1 L285.1,130.7 L287.5,135 L283.1,137.4 M295.7,125 L300.1,122.6 L302.4,127 L298,129.3 M310.8,117.1 L315.2,114.8 L317.5,119.2 L313,121.5 M326,109.4 L330.5,107.2 L332.7,111.7 L328.2,113.9 M341.3,102 L345.8,99.8 L347.9,104.3 L343.4,106.4 M356.7,94.8 L361.3,92.7 L363.3,97.2 L358.8,99.2 M372.3,87.8 L376.9,85.8 L378.8,90.2 L374.2,92.3 M387.9,81.1 L392.5,79.1 L394.4,83.6 L389.8,85.5 M403.6,74.5 L408.3,72.7 L410.1,77.1 L405.4,79 M419.5,68.3 L424.2,66.5 L425.8,70.8 L421.2,72.6 M435.4,62.3 L440.1,60.6 L441.7,64.8 L437,66.5 M451.4,56.5 L456.2,54.9 L457.6,59 L452.9,60.7 M467.6,51 L472.3,49.4 L473.7,53.4 L468.9,55.1 M483.7,45.7 L488.5,44.2 L489.8,48.1 L485,49.6 M500,40.7 L504.8,39.3 L505.9,42.9 L501.2,44.4 M516.4,35.9 L521.2,34.6 L522.2,38 L517.4,39.5 M532.8,31.4 L537.6,30.1 L538.5,33.4 L533.7,34.7 M549.3,27.1 L554.1,25.9 L554.9,29 L550,30.2 M565.8,23.1 L570.7,21.9 L571.3,24.8 L566.5,26 M582.4,19.3 L587.3,18.2 L587.9,20.8 L583,22 M599,15.7 L603.9,14.8 L604.4,17.1 L599.5,18.2 M615.7,12.5 L620.6,11.6 L621,13.6 L616.1,14.6 M632.5,9.5 L637.4,8.7 L637.7,10.3 L632.8,11.3 M649.3,6.8 L654.2,6 L654.4,7.3 L649.5,8.1 M666.1,4.3 L671.1,3.6 L671.2,4.5 L666.2,5.3 M683,2.1 L687.9,1.5 L688,1.9 L683,2.6 M699.8,0.2 L700.9,0.1 L699.9,0.2" id="Shape"></path>
            </g>
            <g id="Group" transform="translate(699.000000, 0.000000)" fill="#03709C">
                <path d="M492.8,67.5 L477.2,71.6 C476.2,71.9 475.1,72.8 474.7,73.6 L470.9,82.1 C470.5,82.9 471,83.4 472,83.1 L487.6,79 C488.6,78.7 489.7,77.8 490.1,77 L493.9,68.5 C494.3,67.7 493.8,67.3 492.8,67.5 Z M490.7,70.9 C490,71.6 489.1,72.5 488.2,73.3 C487.5,73.9 486.8,74.6 486,75.2 L487.9,78 L484.8,76.2 C484.4,76.5 484,76.8 483.5,77.2 C482.8,77.7 482.1,78 481.2,78.1 C481,78.1 480.7,78.1 480.4,78 C480.2,77.9 480.1,77.8 479.9,77.7 L479.7,77.5 L472.5,82.1 L478.4,76.2 C478.2,76 478.1,75.8 477.9,75.6 C476.6,74 475.8,72.9 475.8,72.9 C475.8,72.9 477,73.6 478.7,74.8 C479.1,75.1 479.6,75.4 480,75.8 C480.2,76 480.5,76.2 480.7,76.4 C480.8,76.4 480.8,76.5 480.9,76.5 C480.9,76.5 480.8,76.5 480.8,76.4 L480.9,76.4 C481.2,76.3 481.7,76.1 482.2,75.7 C482.7,75.3 483.2,74.9 483.7,74.4 C484.8,73.5 485.8,72.7 486.9,72 C487.9,71.3 488.9,70.6 489.8,70.1 C491.5,69 492.8,68.4 492.8,68.4 C492.8,68.4 492.2,69.5 490.7,70.9 L490.7,70.9 Z M560,109 L545.7,101.5 C544.8,101 543.4,100.9 542.5,101.3 L534,105 C533.2,105.4 533.2,106 534.1,106.5 L548.4,114 C549.3,114.5 550.7,114.6 551.6,114.2 L560.1,110.5 C561,110.2 560.9,109.5 560,109 Z M556.2,110.2 C555.2,110.3 554,110.3 552.7,110.3 C551.8,110.3 550.8,110.3 549.8,110.2 L549.3,113.5 L548.3,110.1 C547.8,110.1 547.3,110 546.7,110 C545.9,109.9 545.1,109.7 544.4,109.1 C544.2,108.9 544,108.8 543.9,108.5 C543.8,108.3 543.8,108.2 543.7,108 L543.7,107.7 L535.3,106.2 L543.7,105.8 L543.7,105.1 C543.8,103 544,101.7 544,101.7 C544,101.7 544.4,103 544.8,105 C544.9,105.5 545,106 545.1,106.6 C545.1,106.9 545.2,107.2 545.2,107.5 L545.2,107.7 L545.2,107.6 L545.3,107.7 C545.6,107.9 546.2,108 546.7,108 C547.4,108 548,108.1 548.7,108.1 C550.1,108.2 551.4,108.3 552.7,108.5 C554,108.7 555.1,108.8 556.2,109 C558.2,109.4 559.6,109.8 559.6,109.8 C559.6,109.8 558.2,110.1 556.2,110.2 L556.2,110.2 Z M1024.9,465.3 L1010.6,457.8 C1009.7,457.3 1008.3,457.2 1007.4,457.6 L998.9,461.3 C998.1,461.7 998.1,462.3 999,462.8 L1013.3,470.3 C1014.2,470.8 1015.6,470.9 1016.5,470.5 L1025,466.8 C1025.8,466.4 1025.8,465.7 1024.9,465.3 Z M1021.1,466.4 C1020.1,466.5 1018.9,466.5 1017.6,466.5 C1016.7,466.5 1015.7,466.5 1014.7,466.4 L1014.2,469.7 L1013.2,466.3 C1012.7,466.3 1012.2,466.2 1011.6,466.2 C1010.8,466.1 1010,465.9 1009.3,465.3 C1009.1,465.1 1008.9,465 1008.8,464.7 C1008.7,464.5 1008.7,464.4 1008.6,464.2 L1008.6,463.9 L1000.2,462.4 L1008.6,462 L1008.6,461.3 C1008.7,459.2 1008.9,457.9 1008.9,457.9 C1008.9,457.9 1009.3,459.2 1009.7,461.2 C1009.8,461.7 1009.9,462.2 1010,462.8 C1010,463.1 1010.1,463.4 1010.1,463.7 L1010.1,463.9 L1010.1,463.8 L1010.2,463.9 C1010.5,464.1 1011.1,464.2 1011.6,464.2 C1012.3,464.2 1012.9,464.3 1013.6,464.3 C1015,464.4 1016.3,464.5 1017.6,464.7 C1018.9,464.9 1020,465 1021.1,465.2 C1023.1,465.6 1024.5,466 1024.5,466 C1024.5,466 1023.1,466.3 1021.1,466.4 L1021.1,466.4 Z M351.3,46.7 L326.9,58 C325.3,58.7 323.8,60.5 323.4,62 L319.6,77 C319.2,78.5 320.2,79.1 321.7,78.4 L346.1,67.1 C347.7,66.4 349.2,64.6 349.6,63.1 L353.4,48.1 C353.8,46.6 352.9,45.9 351.3,46.7 Z M348.6,52.6 C347.6,53.9 346.3,55.5 344.9,57.1 C344.2,57.9 343.5,58.8 342.8,59.6 C342.3,60.2 341.8,60.8 341.3,61.3 L346.3,65.4 L340.4,62.4 C339.7,63.2 339,64 338.3,64.7 C337.5,65.6 336.5,66.3 335.2,66.7 C334.9,66.8 334.5,66.8 334.1,66.7 C333.9,66.7 333.7,66.6 333.5,66.5 C333.4,66.4 333.3,66.3 333.2,66.3 C333,66.2 332.8,66 332.7,65.9 L322.4,76.5 L331.5,65 C330.9,64.6 330.3,64.2 329.8,63.8 C327,61.8 325.3,60.3 325.3,60.3 C325.3,60.3 327.3,61.3 330.3,63 C331,63.4 331.8,63.9 332.7,64.4 C333.1,64.7 333.5,64.9 334,65.2 C334.1,65.3 334.2,65.3 334.3,65.4 L334.4,65.4 C334.5,65.4 334.7,65.4 334.9,65.3 C335.7,65.1 336.5,64.4 337.2,63.6 C337.9,62.8 338.7,61.9 339.4,61 C340.2,60.2 340.9,59.3 341.7,58.5 C342.4,57.7 343.2,56.9 343.9,56.1 C345.3,54.5 346.7,53.1 347.9,51.9 C350.3,49.5 352,47.9 352,47.9 C352,47.9 350.7,49.9 348.6,52.6 L348.6,52.6 Z M614.7,229.5 L604,241.5 C603.3,242.3 602.9,243.6 603,244.5 L604.5,253.7 C604.6,254.6 605.3,254.7 606,254 L616.7,242 C617.4,241.2 617.8,239.9 617.7,239 L616.2,229.8 C616,228.9 615.3,228.7 614.7,229.5 Z M612.3,242.7 C612,243.5 611.6,244.1 610.9,244.7 C610.7,244.8 610.5,245 610.1,245.1 L609.6,245.1 C609.5,245.1 609.4,245.1 609.4,245 L606,252.8 L607.7,244.6 C607.5,244.5 607.2,244.5 607,244.4 C605,243.8 603.7,243.3 603.7,243.3 C603.7,243.3 605.1,243.2 607.1,243.3 C607.6,243.3 608.2,243.4 608.8,243.4 C609.1,243.4 609.4,243.4 609.7,243.5 L609.9,243.5 L609.8,243.5 L609.9,243.4 C610.2,243.2 610.4,242.6 610.6,242.1 C610.8,241.5 611,240.8 611.2,240.2 C611.6,238.9 612.1,237.6 612.5,236.4 C613,235.2 613.4,234.1 613.9,233.2 C614.7,231.3 615.5,230.1 615.5,230.1 C615.5,230.1 615.4,231.5 615,233.5 C614.8,234.5 614.6,235.7 614.2,236.9 C614,237.8 613.7,238.8 613.4,239.7 L616.5,241 L613,241.2 C612.7,241.7 612.5,242.2 612.3,242.7 L612.3,242.7 Z M772.6,286.2 C772.4,285 771.4,283.5 770.4,282.9 L760.5,277.2 C759.5,276.6 758.9,277.2 759.1,278.4 L762.3,298 C762.5,299.2 763.5,300.7 764.5,301.3 L774.4,307 C775.4,307.6 776,307 775.8,305.8 L772.6,286.2 Z M771.9,302.8 C771.1,301.8 770.2,300.7 769.3,299.4 C768.8,298.8 768.4,298.1 767.9,297.4 C767.7,297 767.4,296.7 767.1,296.3 L763.4,298.5 L766.2,294.9 C765.8,294.3 765.5,293.7 765.1,293.2 C764.6,292.4 764.3,291.5 764.3,290.4 C764.3,290.1 764.4,289.8 764.5,289.5 C764.6,289.3 764.7,289.2 764.9,289 C765,288.9 765.1,288.9 765.1,288.8 L765.2,288.7 L760.2,279.3 L766.7,287.5 C767,287.3 767.3,287 767.6,286.8 C769.6,285.3 771.1,284.5 771.1,284.5 C771.1,284.5 770.1,285.9 768.3,287.7 C767.9,288.2 767.4,288.7 766.9,289.2 L766.1,290 L765.9,290.2 L765.9,290.4 C765.9,290.9 766.2,291.6 766.6,292.1 C767.1,292.8 767.5,293.5 768,294.2 C768.5,294.9 768.9,295.6 769.3,296.3 C769.7,297 770.1,297.7 770.6,298.4 C771.4,299.8 772.1,301 772.7,302.2 C773.9,304.4 774.5,306 774.5,306 C774.5,306 773.5,304.7 771.9,302.8 L771.9,302.8 Z M865.5,176.8 L847.1,151.5 C845.9,149.9 843.5,148.6 841.7,148.5 L823.5,148 C821.7,148 821.2,149.2 822.4,150.8 L840.8,176.1 C842,177.7 844.4,179 846.2,179.1 L864.4,179.6 C866.1,179.7 866.6,178.4 865.5,176.8 Z M858,175.1 C856.2,174.2 854.1,173.2 851.9,172.1 C850.8,171.5 849.6,170.9 848.5,170.3 L846.4,169.1 L842.7,175.8 L844.8,168.2 C843.7,167.6 842.6,166.9 841.5,166.3 C840.8,165.9 840.3,165.5 839.8,164.9 C839.3,164.4 838.9,163.8 838.6,163 C838.5,162.6 838.4,162.2 838.5,161.6 C838.5,161.5 838.6,161.3 838.6,161.2 L838.7,161 L838.9,160.6 C839,160.5 839,160.3 839.1,160.2 L824.7,151.1 L839.9,158.5 C840.3,157.7 840.7,156.9 841,156.2 C842.7,152.6 844,150.2 844,150.2 C844,150.2 843.3,152.8 842,156.6 C841.7,157.5 841.3,158.6 841,159.7 C840.8,160.2 840.6,160.8 840.4,161.4 L840.2,161.8 L840.1,162 L840.1,162.1 C840.1,162.2 840.1,162.4 840.2,162.6 C840.5,163.4 841.5,164.3 842.4,164.8 C843.5,165.4 844.7,166.1 845.9,166.7 C847.1,167.4 848.2,168 849.4,168.7 C850.5,169.3 851.6,170 852.7,170.6 C854.8,171.9 856.8,173.1 858.5,174.2 C861.9,176.3 864,177.9 864,177.9 C864,177.9 861.6,176.9 858,175.1 L858,175.1 Z M1005.6,273 L932.6,234.3 C928,231.8 920.7,231.5 916.3,233.4 L872.5,253.4 C868.2,255.4 868.4,259 873.1,261.4 L946.1,300.1 C950.7,302.6 958,302.9 962.4,301 L1006.2,281 C1010.4,279.1 1010.2,275.5 1005.6,273 L1005.6,273 Z M998.6,277.2 C995.5,277.1 991.1,277.1 985.9,276.9 C980.6,276.7 974.5,276.5 967.9,276.2 C964.6,276.1 961.2,275.9 957.8,275.7 C955.2,275.6 952.5,275.4 949.9,275.3 L950.5,297.2 L948,275.2 L947.3,275.2 L936.8,274.6 C935,274.4 933.2,274 931.6,273.4 C929.9,272.8 928.3,272 927,270.7 C926.3,270.1 925.7,269.3 925.5,268.3 C925.5,268 925.4,267.8 925.4,267.5 L925.4,266.9 C925.4,266.5 925.4,266.1 925.3,265.7 C925.3,264.8 925.2,263.9 925.2,263 L878.3,259.6 L923.3,261.2 C923.1,258.2 923.9,255.3 923.8,252.6 C923.5,247.3 923.9,242.9 923.7,239.8 C923.6,236.7 923.8,234.9 923.8,234.9 C923.8,234.9 924.1,236.6 924.4,239.7 C924.7,242.8 925.2,247.1 925.7,252.4 C925.9,255 926.2,257.9 926.5,260.9 C926.6,262.4 926.6,264 926.8,265.5 C926.8,265.9 926.7,266.3 926.8,266.7 L926.8,267.3 C926.8,267.4 927,267.6 927,267.7 C927.2,268.3 927.6,268.8 928.2,269.3 C929.3,270.3 930.7,271 932.3,271.5 C933.8,272 935.5,272.4 937.1,272.5 C940.5,272.7 944.1,272.9 947.6,273.1 L958.1,273.7 C958.1,273.7 965,274.1 968.2,274.3 C974.8,274.7 980.9,275.2 986.2,275.6 C991.5,276 995.8,276.4 998.9,276.7 C1002,277 1003.7,277.2 1003.7,277.2 L998.6,277.2 L998.6,277.2 Z M976.3,372.2 C976.2,371.3 975.7,371.3 975.2,372.1 L967.8,384.6 C967.3,385.4 967.1,386.7 967.2,387.6 L968.7,396.2 C968.8,397.1 969.3,397.1 969.8,396.3 L977.2,383.8 C977.7,383 977.9,381.7 977.8,380.8 L976.3,372.2 Z M974.3,382.2 L972.8,382.2 C972.7,382.2 972.8,382.2 972.8,382.2 C972.8,382.2 972.7,382.3 972.7,382.4 L972.4,383 C972.4,383 972.3,383.5 972.2,383.8 C972.2,384.1 972.1,384.4 972.1,384.7 L971.8,386.5 C971.7,387.1 971.6,387.7 971.4,388.3 C971.3,388.9 971.1,389.4 971,390 C970.7,391.1 970.5,392.1 970.2,393 C969.7,394.7 969.3,395.9 969.3,395.9 C969.3,395.9 969.3,394.7 969.5,392.9 C969.6,392 969.7,391 969.9,389.8 C970,389.2 970.1,388.7 970.2,388.1 L970.5,386.3 L968,385.6 L970.7,385.3 C970.8,385.1 970.8,384.8 970.9,384.6 C971,384.3 971,384 971.1,383.7 L971.4,382.8 C971.4,382.8 971.7,382.2 971.9,382 C972,381.9 972.1,381.7 972.3,381.6 C972.4,381.5 972.5,381.5 972.6,381.4 L973.1,381.4 L975.3,373.3 L974.3,381.6 L974.4,381.6 C976.2,381.9 977.4,382.2 977.4,382.2 C977.4,382.2 976.1,382.3 974.3,382.2 L974.3,382.2 Z M872.2,327.2 L855.8,331.3 C854.8,331.6 853.6,332.5 853.2,333.4 L849.3,342.4 C848.9,343.3 849.4,343.8 850.5,343.5 L866.9,339.4 C867.9,339.1 869.1,338.2 869.5,337.3 L873.4,328.3 C873.7,327.4 873.2,326.9 872.2,327.2 Z M870,330.8 C869.2,331.6 868.3,332.5 867.3,333.4 C866.6,334.1 865.8,334.7 865,335.4 L867.1,338.5 L863.8,336.4 C863.3,336.8 862.9,337.1 862.4,337.5 C862,337.8 861.7,338 861.3,338.1 C860.9,338.2 860.5,338.4 859.9,338.3 C859.6,338.3 859.3,338.2 859,338 C858.9,337.9 858.8,337.9 858.8,337.8 L858.7,337.7 L858.6,337.6 L851.2,342.5 L857.4,336.3 C857.2,336 857,335.8 856.8,335.6 C855.4,333.9 854.6,332.7 854.6,332.7 C854.6,332.7 855.9,333.5 857.6,334.8 C858,335.1 858.5,335.5 859,335.9 C859.4,336.2 860.2,336.9 860,336.7 C860.3,336.7 860.9,336.4 861.3,336.1 C861.8,335.7 862.4,335.2 862.9,334.7 C864,333.8 865.2,332.9 866.3,332.1 C867.4,331.3 868.4,330.6 869.4,330 C871.2,328.8 872.5,328.2 872.5,328.2 C872.5,328.2 871.5,329.3 870,330.8 L870,330.8 Z M912.4,367.7 C914,365.6 914.8,362.1 914.2,359.9 L908.2,336.9 C907.6,334.6 905.8,334.4 904.2,336.5 L879.3,368.8 C877.7,370.9 876.9,374.4 877.5,376.6 L883.5,399.6 C884.1,401.9 885.9,402.1 887.5,400 L912.4,367.7 Z M893.9,366.8 C893.5,368.4 893.2,370.1 892.8,371.8 C892.4,373.5 892,375.2 891.6,376.8 C891.2,378.5 890.8,380.1 890.4,381.7 C889.6,384.9 888.8,387.8 888.1,390.3 C886.7,395.3 885.6,398.6 885.6,398.6 C885.6,398.6 886,395.1 887,390 C887.5,387.4 888,384.5 888.7,381.3 C889,379.7 889.4,378.1 889.7,376.4 C889.9,375.3 890.2,374.2 890.4,373.1 L880.3,371.2 L890.8,371.4 C891.2,369.7 891.6,368.1 892,366.4 C892.3,365.5 892.6,364.6 893.1,363.8 C893.6,363 894.1,362.3 895,361.7 C895.4,361.4 895.9,361.1 896.5,361.1 L897.3,361.1 L897.9,361.2 C898.2,361.2 898.5,361.3 898.8,361.3 L904.7,339.7 L900.7,361.6 C902,361.8 903.2,362 904.4,362.1 C909.6,362.9 913,363.6 913,363.6 C913,363.6 909.5,363.6 904.3,363.3 C903,363.2 901.6,363.2 900.1,363 C899.4,362.9 898.6,362.9 897.8,362.8 L896.8,362.8 C896.6,362.8 896.4,362.9 896.1,363.1 C895,363.8 894.3,365.4 893.9,366.8 L893.9,366.8 Z M301,36.9 L280.5,22.9 C279.2,22 277.2,21.7 276.1,22.2 L264.7,27.1 C263.6,27.6 263.7,28.7 265,29.6 L285.5,43.5 C286.8,44.4 288.8,44.7 289.9,44.2 L301.3,39.3 C302.5,38.9 302.3,37.8 301,36.9 Z M287.3,35.8 L287.3,36.1 C287.4,37 287.5,37.8 287.5,38.5 C287.8,41.5 287.8,43.6 287.8,43.6 L286.8,38.6 C286.7,37.9 286.5,37 286.4,36.2 C286.3,35.4 286.1,34.5 286,33.6 C285.9,33.3 285.6,33 285.3,32.8 C285,32.6 284.6,32.3 284.1,32.2 C283.9,32.1 283.7,32.1 283.5,32 C283.4,32 283.3,32 283.2,31.9 L282.8,31.8 C282.3,31.7 281.8,31.6 281.3,31.6 C280.3,31.4 279.3,31.3 278.3,31.1 C277.3,30.9 276.4,30.7 275.4,30.6 C273.5,30.3 271.8,29.9 270.3,29.6 C267.3,29 265.4,28.5 265.4,28.5 C265.4,28.5 267.4,28.6 270.4,29 C271.9,29.2 273.7,29.4 275.5,29.7 C276.4,29.8 277.4,30 278.4,30.1 C278.8,30.2 279.2,30.2 279.5,30.3 L279.2,23.9 L280.6,30.5 C280.9,30.5 281.1,30.6 281.4,30.6 L282.9,30.9 L283.3,31 C283.4,31 283.5,31 283.7,31.1 C284,31.2 284.2,31.3 284.5,31.3 C285,31.5 285.5,31.8 285.9,32.1 C286.3,32.4 286.7,32.9 286.9,33.5 C286.9,33.7 286.9,33.8 287,33.9 L287,34.2 C287,34.4 287,34.6 287.1,34.8 L299.3,37.4 L287.3,35.8 L287.3,35.8 Z M456.6,42.6 L435.9,27.5 C434.6,26.5 432.2,25.9 430.6,26.2 L414.6,28.5 C413,28.7 412.8,29.7 414.1,30.7 L434.8,45.8 C436.1,46.8 438.5,47.4 440.1,47.1 L456.1,44.8 C457.7,44.6 457.9,43.6 456.6,42.6 Z M439.5,41 C438.5,44.2 437.7,46.2 437.7,46.2 C437.7,46.2 437.8,44 438.3,40.7 C438.4,39.9 438.5,39 438.7,38.1 C438.7,37.9 438.8,37.6 438.8,37.4 C438.8,37.3 438.8,37.4 438.8,37.4 L438.7,37.3 C438.6,37.1 438.2,36.9 437.8,36.7 C437,36.3 436.1,36.1 435,35.8 C433.9,35.5 432.9,35.3 431.8,35 C430.7,34.7 429.7,34.4 428.6,34.2 C427.5,33.9 426.5,33.6 425.5,33.3 C423.5,32.7 421.7,32.1 420.1,31.6 C417,30.5 414.9,29.7 414.9,29.7 C414.9,29.7 417.1,29.9 420.4,30.4 C422,30.7 423.9,31 426,31.4 C427,31.6 428.1,31.8 429.1,32.1 C430.1,32.3 431,32.6 432,32.8 L434,27.9 L433.7,33.3 C434.3,33.5 434.9,33.6 435.4,33.8 C436.4,34 437.6,34.4 438.6,35 C439.1,35.3 439.6,35.7 440,36.3 C440.1,36.5 440.2,36.7 440.2,36.9 L440.2,37.3 C440.2,37.4 440.2,37.6 440.1,37.6 C440.1,37.7 440,37.9 440,38 L454.1,42.6 L439.4,40 C439.7,40.4 439.6,40.7 439.5,41 L439.5,41 Z M742.3,124.3 L688.3,121 C684.9,120.8 680.4,122.1 678.3,124 L657.2,142.9 C655.1,144.8 656.2,146.5 659.6,146.7 L713.6,150 C717,150.2 721.5,148.9 723.6,147 L744.7,128.1 C746.9,126.2 745.8,124.5 742.3,124.3 Z M732,130.5 C728.9,131.6 725.3,132.8 721.5,134.1 C719.6,134.7 717.6,135.4 715.5,136 C713.8,136.5 712.1,137.1 710.3,137.6 L715.4,147.6 L708,138.3 C706.3,138.8 704.7,139.3 703,139.8 C702.5,139.9 701.9,140.1 701.4,140.2 C700.8,140.3 700.3,140.4 699.7,140.5 C698.6,140.7 697.5,140.7 696.4,140.7 C695.3,140.6 694.2,140.5 693,139.8 C692.7,139.6 692.4,139.4 692.2,139.1 C692.1,138.9 692,138.8 692,138.7 L691.8,138.4 C691.6,138 691.3,137.6 691.1,137.2 L662.6,144.5 L689.8,135.1 C689.3,134.3 688.8,133.5 688.4,132.7 C685.1,127.1 683.1,123.2 683.1,123.2 C683.1,123.2 685.8,126.6 689.6,131.9 C690.5,133.2 691.6,134.7 692.6,136.2 C692.9,136.6 693.1,137 693.4,137.4 L693.6,137.7 L693.8,137.9 C693.9,138 693.9,138 694.1,138.1 C694.6,138.4 695.6,138.6 696.5,138.6 C697.4,138.6 698.4,138.5 699.3,138.3 C699.8,138.2 700.2,138.1 700.7,138 C701.2,137.9 701.7,137.7 702.2,137.6 C704.2,137 706.3,136.3 708.4,135.7 C710.5,135.1 712.6,134.5 714.6,133.9 C716.6,133.3 718.7,132.8 720.6,132.2 C724.5,131.1 728.2,130.2 731.4,129.4 C737.7,127.8 742,127 742,127 C742,127 738.1,128.4 732,130.5 L732,130.5 Z M200.8,1.4 C200.6,0.8 200,0.8 199.5,1.3 L191.7,10.1 C191.2,10.7 191,11.6 191.2,12.2 L193.5,18.2 C193.7,18.8 194.3,18.8 194.8,18.3 L202.6,9.5 C203.1,8.9 203.3,8 203.1,7.4 L200.8,1.4 Z M199,9.6 L198.8,10.3 C198.7,10.6 198.6,10.9 198.4,11.2 C198.2,11.5 198,11.7 197.7,11.9 C197.5,12 197.3,12.1 197.1,12.1 L196.5,12.1 L194.6,17.5 L195.2,12 C194.8,11.9 194.4,11.9 194,11.8 C192.5,11.6 191.5,11.3 191.5,11.3 C191.5,11.3 192.5,11.1 194,11 C194.8,10.9 195.6,10.9 196.6,10.9 L196.8,10.9 L196.9,10.8 L197.2,10.5 C197.3,10.3 197.3,10.2 197.4,10 L197.6,9.3 C197.8,8.3 198.1,7.4 198.3,6.5 C198.6,5.6 198.8,4.8 199.1,4.1 C199.6,2.7 200.1,1.8 200.1,1.8 C200.1,1.8 200.1,2.8 199.9,4.3 C199.8,5 199.7,5.9 199.5,6.8 L199.2,8.3 L202.1,9 L199,9.4 L199,9.6 L199,9.6 Z M143,41.3 L130.3,37.9 C129.5,37.7 128.3,37.8 127.7,38.1 L121.2,41.6 C120.6,41.9 120.7,42.4 121.5,42.6 L134.2,46 C135,46.2 136.2,46.1 136.8,45.8 L143.3,42.3 C143.9,42 143.8,41.6 143,41.3 Z M140.1,42.6 C139.3,42.8 138.4,42.9 137.4,43.1 L134.7,43.4 L134.8,45.7 L133.6,43.5 C133.3,43.5 133,43.5 132.7,43.6 C132.2,43.6 131.5,43.7 131,43.5 C130.7,43.4 130.4,43.4 130.1,43.1 C129.9,43 129.8,42.8 129.6,42.5 L129.6,42.3 L122.4,42.3 L129.3,41 L129.3,40.8 C129,39.2 128.9,38.1 128.9,38.1 C128.9,38.1 129.4,39.1 130.1,40.6 C130.3,41 130.4,41.4 130.6,41.8 L130.7,42 L130.7,42.1 C130.7,42.1 130.7,42.2 130.7,42.1 C130.7,42 130.7,42 130.7,42.1 C130.8,42.1 131,42.2 131.2,42.2 L131.8,42.2 C131.8,42.2 132.3,42.1 132.5,42.1 C133,42 133.6,42 134.1,41.9 C135.2,41.8 136.2,41.7 137.2,41.7 C138.2,41.7 139.1,41.6 140,41.7 C141.6,41.7 142.7,41.9 142.7,41.9 C142.7,41.9 141.7,42.3 140.1,42.6 L140.1,42.6 Z M1.5,65.9 L13.4,60.8 C14.2,60.5 14.9,59.7 15,59.1 L16.3,52.9 C16.4,52.3 15.9,52.1 15.2,52.4 L3.3,57.5 C2.5,57.8 1.8,58.6 1.7,59.2 L0.4,65.4 C0.2,66 0.7,66.3 1.5,65.9 Z M5.4,60.4 C5.2,60.3 4.9,60.1 4.7,60 C3.4,59.2 2.5,58.5 2.5,58.5 C2.5,58.5 3.5,58.7 5,59.2 C5.4,59.3 5.8,59.5 6.2,59.6 C6.4,59.7 6.6,59.8 6.8,59.8 C7,59.9 7.3,60 7.3,60 C7.5,60 7.9,59.8 8.2,59.5 C8.5,59.3 8.9,58.8 9.2,58.4 C9.9,57.6 10.7,56.9 11.4,56.2 C12.1,55.5 12.8,54.9 13.4,54.4 C14.6,53.4 15.5,52.8 15.5,52.8 C15.5,52.8 15,53.7 14,55 C13.5,55.6 13,56.3 12.3,57.1 C11.9,57.5 11.5,58 11.1,58.5 L13.3,60.1 L10.3,59.4 L10.2,59.5 L9,60.7 C8.8,60.9 8.5,61 8.2,61.2 C7.9,61.3 7.6,61.4 7.2,61.4 C7.1,61.4 7,61.4 6.9,61.3 L6.7,61.3 C6.6,61.3 6.6,61.2 6.5,61.2 L1.7,65.3 L5.4,60.4 L5.4,60.4 Z M48,35.6 L63.9,44.1 C64.9,44.6 66.6,44.8 67.6,44.6 L78.1,41.7 C79.1,41.4 79.2,40.7 78.2,40.2 L62.3,31.7 C61.3,31.2 59.6,31 58.6,31.2 L48.1,34.1 C47.1,34.4 47,35 48,35.6 Z M59.7,35.9 C59.7,35.7 59.7,35.5 59.8,35.3 C60.1,33 60.3,31.5 60.3,31.5 C60.3,31.5 60.5,33 60.6,35.3 C60.6,35.9 60.6,36.5 60.7,37.1 L60.7,37.5 L60.8,37.6 C61,37.7 61.2,37.9 61.5,38 C62.1,38.2 62.7,38.3 63.5,38.3 C64.2,38.4 65,38.5 65.7,38.5 C66.5,38.6 67.2,38.7 67.9,38.8 C68.6,38.9 69.4,39 70.1,39.1 C71.5,39.3 72.8,39.6 73.9,39.8 C76.1,40.2 77.6,40.7 77.6,40.7 C77.6,40.7 76.1,40.8 73.8,40.6 C72.7,40.6 71.3,40.5 69.9,40.3 C69.2,40.2 68.5,40.2 67.7,40.1 C67,40 66.3,39.9 65.6,39.9 L64.9,43.4 L64.4,39.7 C64,39.6 63.6,39.6 63.2,39.5 C62.5,39.4 61.6,39.3 60.9,39 C60.5,38.8 60.2,38.7 59.8,38.3 C59.6,38.1 59.4,37.9 59.4,37.5 L59.4,37 L49.3,35.1 L59.7,35.9 L59.7,35.9 Z" id="Shape"></path>
                <path d="M272.2,32.4 C272,31.7 271.3,31.7 270.7,32.3 L261.4,42.1 C260.8,42.7 260.5,43.8 260.7,44.5 L263,51.4 C263.2,52.1 263.9,52.1 264.5,51.5 L273.8,41.7 C274.4,41.1 274.7,40 274.5,39.3 L272.2,32.4 Z M271.1,40.5 C270.2,40.5 269.2,40.4 268.2,40.4 L267.9,40.4 C267.8,40.4 267.7,40.5 267.6,40.5 C267.4,40.6 267.3,40.8 267.1,41 C267,41.2 266.9,41.4 266.8,41.7 C266.7,42 266.7,42.2 266.6,42.5 C266.4,43 266.3,43.6 266.1,44.1 C265.9,44.6 265.8,45.2 265.6,45.7 C265.3,46.7 265,47.7 264.7,48.5 C264.2,50.1 263.7,51.2 263.7,51.2 C263.7,51.2 263.9,50.1 264.3,48.4 C264.5,47.6 264.7,46.6 265,45.5 C265.1,45 265.3,44.4 265.4,43.9 C265.4,43.8 265.5,43.6 265.5,43.5 L261.7,42.9 L265.7,42.9 C265.8,42.7 265.8,42.5 265.9,42.3 C266,42 266.1,41.7 266.1,41.5 C266.2,41.2 266.3,40.9 266.5,40.6 C266.7,40.3 266.9,40.1 267.2,39.9 C267.3,39.8 267.5,39.7 267.7,39.7 L268.7,39.7 L270.9,33.2 L269.4,39.8 C270,39.9 270.6,39.9 271.2,40 C272.9,40.2 274,40.4 274,40.4 C274,40.4 272.9,40.5 271.1,40.5 L271.1,40.5 Z M376.9,34.8 C376.2,35.1 376.2,35.7 376.8,36.3 L387.1,45.5 C387.8,46.1 388.8,46.4 389.5,46.1 L396.5,43.5 C397.2,43.2 397.2,42.6 396.6,42 L386.3,32.8 C385.6,32.2 384.6,31.9 383.9,32.2 L376.9,34.8 Z M385.1,35.7 L385.1,39 C385.1,39.1 385.2,39.2 385.2,39.3 C385.3,39.5 385.5,39.6 385.7,39.8 C385.9,39.9 386.1,40 386.4,40.1 C386.7,40.2 387,40.2 387.2,40.3 C387.8,40.4 388.3,40.6 388.9,40.7 C389.5,40.8 390,41 390.5,41.1 C391.6,41.4 392.5,41.7 393.4,41.9 C395.1,42.4 396.2,42.8 396.2,42.8 C396.2,42.8 395,42.6 393.3,42.3 C392.4,42.1 391.4,41.9 390.4,41.7 C389.9,41.6 389.3,41.5 388.8,41.3 C388.7,41.3 388.5,41.2 388.4,41.2 L387.9,45.1 L387.7,41 C387.5,41 387.3,40.9 387.1,40.9 C386.8,40.8 386.5,40.8 386.2,40.7 C385.9,40.6 385.6,40.5 385.3,40.3 C385,40.1 384.8,39.9 384.6,39.6 C384.5,39.5 384.4,39.3 384.4,39.1 L384.4,38.6 L384.4,38.1 L377.7,36.1 L384.4,37.4 C384.5,36.8 384.5,36.2 384.6,35.6 C384.8,33.9 385,32.7 385,32.7 C385,32.7 385.1,33.9 385.1,35.7 L385.1,35.7 Z M216.1,56 L197,48.3 C195.8,47.8 193.9,47.8 192.8,48.2 L181.6,52.6 C180.5,53 180.6,53.8 181.8,54.3 L200.9,62 C202.1,62.5 204,62.5 205.1,62.1 L216.3,57.7 C217.4,57.3 217.3,56.5 216.1,56 Z M202.8,56.6 C202.8,56.9 202.8,57.2 202.9,57.5 C203.1,60.1 203.1,61.8 203.1,61.8 C203.1,61.8 202.8,60.1 202.4,57.6 C202.3,57 202.2,56.3 202.1,55.6 L202.1,55.3 L202.1,55.1 C202.1,55 202,54.9 201.9,54.9 C201.6,54.7 201.3,54.6 200.9,54.5 C200.5,54.4 200.2,54.4 199.8,54.3 L196,54.3 C195.1,54.3 194.3,54.2 193.5,54.2 C192.7,54.2 191.8,54.1 191,54.1 C189.4,54 187.9,53.9 186.6,53.9 C184,53.7 182.3,53.5 182.3,53.5 C182.3,53.5 184,53.4 186.6,53.3 L196.1,53.3 L196,49 L196.9,53.3 C197.5,53.3 198,53.3 198.6,53.4 C199.4,53.4 200.3,53.5 201.1,53.7 C201.5,53.8 201.9,54 202.3,54.3 C202.5,54.4 202.2,54.7 202.3,55 C202.3,55.2 201.9,55.3 201.9,55.4 L201.9,55.7 C201.9,55.8 202.4,55.8 202.4,55.9 L214.5,56.6 L202.8,56.6 L202.8,56.6 Z M109.2,22.4 L98,20.7 C97.3,20.6 96.2,21 95.6,21.6 L89.5,27.8 C88.9,28.4 89,29 89.7,29.1 L100.9,30.8 C101.6,30.9 102.7,30.5 103.3,29.9 L109.4,23.7 C110,23.1 110,22.5 109.2,22.4 Z M108.3,23.6 C107.9,23.8 107.2,24.1 106.5,24.4 C105.7,24.7 104.8,25.1 103.9,25.5 L102.4,26.1 C102,26.3 101.6,26.4 101.2,26.6 L101.5,30.2 L100.8,26.8 L99.3,27.4 C99,27.5 98.7,27.5 98.4,27.6 C98.1,27.6 97.8,27.6 97.5,27.3 L97.3,27.1 L96.1,27.1 L96.7,27 L97,26.9 C97,26.8 97.1,26.6 97.1,26.5 C97.1,26.5 97.2,26.4 97.2,26.3 L90.6,28.6 L97.2,25.8 L97.2,25.7 C97.1,25.2 97.1,24.8 97.1,24.4 C97,23.6 97,22.9 96.9,22.4 C96.9,21.9 96.8,21.6 96.8,21.6 C96.8,21.6 96.9,21.9 97,22.3 C97.1,22.8 97.2,23.5 97.4,24.3 C97.5,24.7 97.5,25.2 97.6,25.6 C97.6,25.8 97.7,26.1 97.7,26.3 C97.7,26.4 97.7,26.5 97.8,26.7 L97.8,26.9 L97.9,27 C97.9,27 98.3,27.2 98.5,27.1 C98.7,27.1 99,27 99.2,27 L100.7,26.4 L102.2,25.8 L103.7,25.2 C104.7,24.8 105.6,24.5 106.4,24.2 C107.2,23.8 107.8,23.6 108.3,23.6 C108.7,23.4 109,23.3 109,23.3 C109,23.3 108.8,23.4 108.3,23.6 L108.3,23.6 Z M556.2,62.9 L513.5,51.5 C510.8,50.8 506.8,51.1 504.7,52.3 L483,64.1 C480.8,65.3 481.3,66.8 484,67.5 L526.7,78.9 C529.4,79.6 533.4,79.3 535.5,78.1 L557.2,66.3 C559.3,65.1 558.9,63.6 556.2,62.9 Z M546.5,66.3 C543.8,66.7 540.7,67.1 537.3,67.5 C535.6,67.7 533.9,67.9 532.1,68.1 C530.4,68.3 528.7,68.4 527,68.6 L528.7,77.5 L525.1,68.8 C523.9,68.9 522.6,69 521.4,69.1 C519.7,69.3 517.7,69.4 516,69 C515.1,68.8 514.2,68.6 513.4,68 C513,67.7 512.5,67.3 512.3,66.7 C512.2,66.5 512.2,66.5 512.2,66.4 L512.1,66.1 L512,65.5 C512,65.4 511.9,65.3 511.9,65.1 L487.1,66.3 L511.4,63 C511.2,62.4 511.1,61.8 511,61.2 C509.7,55.9 509,52.4 509,52.4 C509,52.4 510.4,55.8 512.1,60.9 C512.5,62.2 513,63.6 513.5,65 L513.7,65.6 L513.8,65.9 C513.8,66 513.9,66.1 513.9,66.1 C513.9,66.2 514.1,66.4 514.4,66.5 C514.9,66.8 515.7,67 516.4,67.1 C517.2,67.2 518,67.3 518.8,67.2 C519.6,67.2 520.5,67 521.4,67 C523.2,66.8 525,66.6 526.7,66.5 C528.5,66.3 530.3,66.2 532.1,66 C533.9,65.8 535.6,65.7 537.3,65.6 C540.7,65.4 543.8,65.2 546.5,65.1 C551.9,64.9 555.5,64.9 555.5,64.9 C555.5,64.9 551.9,65.5 546.5,66.3 L546.5,66.3 Z M737.7,230.7 L762.8,232.3 C765.3,232.5 766.1,231.1 764.6,229.2 L741.2,200 C739.7,198.1 736.5,196.5 734,196.3 L708.9,194.7 C706.4,194.5 705.6,195.9 707.1,197.8 L730.5,227 C732,228.9 735.2,230.6 737.7,230.7 Z M728.6,210.8 C728.7,210.6 728.8,210.4 728.8,210.3 L729,210.1 L729.3,209.6 C729.3,209.6 729.3,209.5 729.4,209.5 L710.3,198.4 L730.8,207.4 C731.3,206.7 731.7,206 732.2,205.4 C735,201.2 737.1,198.6 737.1,198.6 C737.1,198.6 735.8,201.7 733.5,206.2 C732.9,207.3 732.3,208.5 731.6,209.8 C731.4,210.1 731.3,210.4 731.1,210.8 L730.8,211.3 L730.7,211.5 L730.7,211.6 C730.7,211.6 730.8,212.1 731.3,212.6 C731.7,213.1 732.3,213.5 732.9,213.9 C733.5,214.3 734.1,214.6 734.9,215 C736.4,215.7 737.9,216.5 739.4,217.2 C740.9,218 742.4,218.7 743.8,219.5 C745.3,220.3 746.7,221.1 748.1,221.8 C750.9,223.3 753.4,224.8 755.5,226.1 C759.8,228.7 762.6,230.6 762.6,230.6 C762.6,230.6 759.4,229.5 754.8,227.5 C752.5,226.5 749.8,225.3 747,224 C745.6,223.3 744.1,222.7 742.6,221.9 C741.3,221.3 740,220.6 738.8,220 L733.3,227.1 L736.8,219 L733.8,217.5 C733.1,217.1 732.3,216.7 731.5,216.2 C730.8,215.7 730.1,215.1 729.5,214.3 C729.2,213.9 728.9,213.5 728.7,213 C728.5,212.2 728.3,211.5 728.6,210.8 L728.6,210.8 Z M440.4,134.6 L429.1,123.7 C428.4,123 426.9,122.2 425.8,122 L414.8,119.5 C413.7,119.3 413.4,119.6 414.1,120.3 L425.4,131.2 C426.1,131.9 427.6,132.7 428.7,132.9 L439.7,135.4 C440.8,135.7 441.1,135.3 440.4,134.6 Z M427.4,132 C427.4,132 428.1,130.8 429.3,129.1 C429.4,128.9 429.6,128.7 429.7,128.5 C429.7,128.4 429.6,128.4 429.5,128.3 C429.1,128 428.6,127.7 428.1,127.4 L426.3,126.5 L424.5,125.6 C424.5,125.6 423.3,125 422.7,124.6 C422.1,124.3 421.5,124 421,123.6 C419.9,123 418.9,122.4 418,121.8 C416.3,120.7 415.1,119.9 415.1,119.9 C415.1,119.9 416.4,120.4 418.3,121.2 C419.2,121.6 420.3,122.1 421.5,122.7 L423.3,123.6 L425.1,124.5 C425.4,124.7 425.8,124.8 426.1,125 L428.1,123.4 L427,125.5 C427.6,125.8 428.1,126.1 428.7,126.4 C429.3,126.7 429.8,127.1 430.3,127.6 C430.4,127.7 430.5,127.9 430.6,128.1 C430.6,128.2 430.7,128.3 430.7,128.5 L430.7,128.8 C430.7,128.9 430.6,129 430.6,129 L439.3,134.2 L429.8,129.9 C428.3,131.2 427.4,132 427.4,132 L427.4,132 Z" id="Shape"></path>
                <path d="M135.8,4.5 L112.9,10.2 C111.4,10.6 109.9,11.7 109.4,12.7 L104.5,23.2 C104,24.2 104.8,24.8 106.3,24.4 L129.2,18.7 C130.7,18.3 132.2,17.2 132.7,16.2 L137.6,5.7 C138.1,4.6 137.3,4.1 135.8,4.5 Z M132.7,8.6 C131.6,9.5 130.3,10.5 128.9,11.6 C128.2,12.1 127.5,12.7 126.7,13.2 L125.5,14.1 L129.5,17.6 L124.5,14.8 C124.5,14.8 124.4,14.8 124.4,14.9 C123.6,15.5 122.9,16 122.1,16.5 C121.2,17 120.3,17.4 119.2,17.4 C118.9,17.4 118.6,17.4 118.3,17.2 C117.9,17 117.9,16.9 117.7,16.8 C117.6,16.7 117.4,16.6 117.3,16.5 L107.1,23.1 L116.3,15.7 C115.8,15.3 115.3,15 114.9,14.6 C112.7,12.9 111.2,11.6 111.2,11.6 C111.2,11.6 112.9,12.5 115.3,14 C115.9,14.4 116.6,14.8 117.2,15.2 C117.5,15.4 117.9,15.6 118.2,15.9 C118.4,16 118.6,16.2 118.6,16.2 C118.7,16.2 118.9,16.3 119,16.2 C119.7,16.2 120.5,15.8 121.2,15.4 C121.9,14.9 122.7,14.3 123.4,13.8 C124.2,13.3 124.9,12.7 125.7,12.2 C126.5,11.7 127.2,11.2 127.9,10.6 C129.4,9.6 130.7,8.7 131.9,7.9 L135.9,5.4 C135.9,5.4 134.9,6.8 132.7,8.6 L132.7,8.6 Z M676.9,126.4 L657.7,101 C656.5,99.4 654.1,98 652.3,98 L641.6,97.7 C641.6,97.7 637,97.5 635,97.7 C633,97.9 632.4,99 633.2,100.1 C633.8,101 637.7,106 637.7,106 L652.6,125.7 C653.8,127.3 656.3,128.7 658,128.7 L675.9,129.3 C677.7,129.3 678.1,128 676.9,126.4 L676.9,126.4 Z M669.4,124.9 C667.6,124.1 665.5,123.1 663.2,121.9 C662.1,121.3 660.9,120.8 659.8,120.1 C659.1,119.7 658.5,119.4 657.8,119 L654.4,125.4 L655.9,118 C654.9,117.4 653.8,116.8 652.8,116.2 C651.5,115.4 650.4,114.4 649.7,113 C649.5,112.6 649.4,112.2 649.4,111.7 C649.4,111.4 649.4,111.1 649.5,110.9 L649.7,110.5 C649.8,110.3 649.8,110.2 649.9,110.1 L639.1,103 L639.3,102.5 L650.8,107.9 C651.1,107.2 651.4,106.6 651.6,106 C653.2,102.3 654.5,100 654.5,100 C654.5,100 654,102.7 652.9,106.5 C652.6,107.5 652.4,108.5 652,109.6 C651.8,110.1 651.7,110.7 651.5,111.3 L651.4,111.7 L651.4,111.8 C651.4,111.9 651.5,112.1 651.6,112.2 C652,113 653,113.7 653.9,114.3 C655,114.9 656.2,115.6 657.4,116.2 C658.6,116.9 659.7,117.5 660.9,118.2 C662,118.8 663.1,119.5 664.2,120.2 C666.3,121.5 668.3,122.7 670,123.9 C673.3,126.1 675.5,127.8 675.5,127.8 C675.5,127.8 673,126.6 669.4,124.9 L669.4,124.9 Z" id="Shape"></path>
            </g>
            <path d="M300.3,137.1 C299.5,138.2 298.7,139.4 298.2,140.9 C297.7,142.3 297.3,144 297.3,145.7 C297.3,146.6 297.4,147.3 297.6,148.2 C297.6,148.3 297.7,148.4 297.7,148.5 C291.5,150.4 285,153.3 278.5,157.1 C256.1,170.4 249.5,200.8 249.5,200.8 C249.5,200.8 279.3,209.8 301.8,196.5 C308.2,192.7 313.9,188.4 318.5,183.9 C318.7,184 318.8,184.2 318.9,184.3 C319.6,184.9 320.2,185.3 321,185.8 C322.5,186.6 324.1,187.1 325.6,187.3 C327.1,187.5 328.6,187.5 329.9,187.3 C332.6,186.9 334.8,185.9 336.9,184.8 C340.9,182.5 344.1,179.4 346.7,176.2 C349.3,172.9 351.4,169.3 352.9,165.6 C350.3,168.7 347.4,171.4 344.2,173.6 C341,175.8 337.6,177.5 334.2,178.2 C332.5,178.6 330.9,178.7 329.6,178.4 C328.9,178.3 328.4,178.1 328,177.8 C327.6,177.5 327.3,177.2 327.1,176.9 C327,176.8 326.9,176.5 326.9,176.4 C326.8,176.2 326.8,176.1 326.8,175.9 C326.7,175.6 326.7,175.2 326.7,174.7 L326.7,174.2 C329.2,170.5 331,166.8 331.8,163.4 C332.8,159.4 326.1,147.9 322.3,146.7 C318.7,145.7 314.4,145.4 309.6,145.9 C309.2,145.7 308.9,145.5 308.6,145.3 C308.5,145.2 308.3,145.1 308.2,145 C308.1,145 308,144.7 307.9,144.6 C307.7,144.3 307.6,143.9 307.6,143.4 C307.6,142.9 307.7,142.3 307.9,141.7 C308.3,140.4 309.2,139 310.3,137.7 C312.6,135.1 315.7,132.9 319.2,131.1 C322.7,129.4 326.5,128.1 330.4,127.4 C326.4,126.9 322.2,127 318.1,127.7 C314,128.4 309.8,129.7 305.8,132.1 C303.9,133.4 302,135 300.3,137.1 L300.3,137.1 Z" id="Path" fill="#03709C"></path>
            <path d="M274.2,173.6 C279.3,170.6 285.8,172.3 288.8,177.4 C291.8,182.5 290.1,189 285,192 C279.9,195 273.4,193.3 270.4,188.2 C267.4,183.2 269.1,176.6 274.2,173.6 Z" id="Path" fill="#FFFFFF"></path>
        </g>
    </g>
</svg>